{
    "accessors" : [
        {
            "bufferView" : 0,
            "componentType" : 5123,
            "count" : 72,
            "max" : [
                13
            ],
            "min" : [
                0
            ],
            "type" : "SCALAR"
        },
        {
            "bufferView" : 1,
            "componentType" : 5126,
            "count" : 14,
            "max" : [
                0.13777875900268555,
                0.3075000047683716,
                -0.12716250121593475
            ],
            "min" : [
                0.09097124636173248,
                0.044999998062849045,
                -0.4465875029563904
            ],
            "type" : "VEC3"
        },
        {
            "bufferView" : 2,
            "componentType" : 5126,
            "count" : 14,
            "max" : [
                0.999847412109375,
                1.0,
                0.999847412109375
            ],
            "min" : [
                -0.999847412109375,
                -1.0,
                -0.999847412109375
            ],
            "type" : "VEC3"
        },
        {
            "bufferView" : 3,
            "componentType" : 5123,
            "count" : 360,
            "max" : [
                63
            ],
            "min" : [
                0
            ],
            "type" : "SCALAR"
        },
        {
            "bufferView" : 4,
            "componentType" : 5126,
            "count" : 64,
            "max" : [
                0.9350625276565552,
                0.3239062428474426,
                -0.7117425203323364
            ],
            "min" : [
                0.09711749851703644,
                0.028593750670552254,
                -1.0734524726867676
            ],
            "type" : "VEC3"
        },
        {
            "bufferView" : 5,
            "componentType" : 5126,
            "count" : 64,
            "max" : [
                0.9961851835250854,
                1.0,
                0.9961851835250854
            ],
            "min" : [
                -0.9961851835250854,
                -1.0,
                -0.9961851835250854
            ],
            "type" : "VEC3"
        },
        {
            "bufferView" : 6,
            "componentType" : 5123,
            "count" : 144,
            "max" : [
                27
            ],
            "min" : [
                0
            ],
            "type" : "SCALAR"
        },
        {
            "bufferView" : 7,
            "componentType" : 5126,
            "count" : 28,
            "max" : [
                0.19304999709129333,
                0.3075000047683716,
                -0.12312749773263931
            ],
            "min" : [
                0.03626624867320061,
                0.044999998062849045,
                -0.9594337940216064
            ],
            "type" : "VEC3"
        },
        {
            "bufferView" : 8,
            "componentType" : 5126,
            "count" : 28,
            "max" : [
                0.9993896484375,
                1.0,
                0.9993896484375
            ],
            "min" : [
                -0.9993896484375,
                -1.0,
                -0.9993896484375
            ],
            "type" : "VEC3"
        },
        {
            "bufferView" : 9,
            "componentType" : 5123,
            "count" : 432,
            "max" : [
                83
            ],
            "min" : [
                0
            ],
            "type" : "SCALAR"
        },
        {
            "bufferView" : 10,
            "componentType" : 5126,
            "count" : 84,
            "max" : [
                1.0387499332427979,
                0.3974999785423279,
                0.005624999757856131
            ],
            "min" : [
                -0.03750000149011612,
                -0.014999999664723873,
                -1.2975000143051147
            ],
            "type" : "VEC3"
        },
        {
            "bufferView" : 11,
            "componentType" : 5126,
            "count" : 84,
            "max" : [
                1.0,
                1.0,
                1.0
            ],
            "min" : [
                -1.0,
                -1.0,
                -1.0
            ],
            "type" : "VEC3"
        },
        {
            "bufferView" : 12,
            "componentType" : 5123,
            "count" : 144,
            "max" : [
                27
            ],
            "min" : [
                0
            ],
            "type" : "SCALAR"
        },
        {
            "bufferView" : 13,
            "componentType" : 5126,
            "count" : 28,
            "max" : [
                0.993378758430481,
                0.3075000047683716,
                -0.12477750331163406
            ],
            "min" : [
                0.036194998770952225,
                0.044999998062849045,
                -1.0717799663543701
            ],
            "type" : "VEC3"
        },
        {
            "bufferView" : 14,
            "componentType" : 5126,
            "count" : 28,
            "max" : [
                0.9986266493797302,
                1.0,
                0.9986266493797302
            ],
            "min" : [
                -0.9986266493797302,
                -1.0,
                -0.9986266493797302
            ],
            "type" : "VEC3"
        }
    ],
    "asset" : {
        "generator" : "Khronos Blender glTF 2.0 exporter",
        "version" : "2.0"
    },
    "bufferViews" : [
        {
            "buffer" : 0,
            "byteLength" : 144,
            "byteOffset" : 0,
            "target" : 34963
        },
        {
            "buffer" : 0,
            "byteLength" : 168,
            "byteOffset" : 144,
            "target" : 34962
        },
        {
            "buffer" : 0,
            "byteLength" : 168,
            "byteOffset" : 312,
            "target" : 34962
        },
        {
            "buffer" : 0,
            "byteLength" : 720,
            "byteOffset" : 480,
            "target" : 34963
        },
        {
            "buffer" : 0,
            "byteLength" : 768,
            "byteOffset" : 1200,
            "target" : 34962
        },
        {
            "buffer" : 0,
            "byteLength" : 768,
            "byteOffset" : 1968,
            "target" : 34962
        },
        {
            "buffer" : 0,
            "byteLength" : 288,
            "byteOffset" : 2736,
            "target" : 34963
        },
        {
            "buffer" : 0,
            "byteLength" : 336,
            "byteOffset" : 3024,
            "target" : 34962
        },
        {
            "buffer" : 0,
            "byteLength" : 336,
            "byteOffset" : 3360,
            "target" : 34962
        },
        {
            "buffer" : 0,
            "byteLength" : 864,
            "byteOffset" : 3696,
            "target" : 34963
        },
        {
            "buffer" : 0,
            "byteLength" : 1008,
            "byteOffset" : 4560,
            "target" : 34962
        },
        {
            "buffer" : 0,
            "byteLength" : 1008,
            "byteOffset" : 5568,
            "target" : 34962
        },
        {
            "buffer" : 0,
            "byteLength" : 288,
            "byteOffset" : 6576,
            "target" : 34963
        },
        {
            "buffer" : 0,
            "byteLength" : 336,
            "byteOffset" : 6864,
            "target" : 34962
        },
        {
            "buffer" : 0,
            "byteLength" : 336,
            "byteOffset" : 7200,
            "target" : 34962
        }
    ],
    "buffers" : [
        {
            "byteLength" : 7536,
            "uri" : "bookShelf.bin"
        }
    ],
    "materials" : [
        {
            "name" : "brown",
            "pbrMetallicRoughness" : {
                "baseColorFactor" : [
                    0.6313999891281128,
                    0.42770999670028687,
                    0.18860000371932983,
                    1.0
                ],
                "metallicFactor" : 0.0
            }
        },
        {
            "name" : "green_book",
            "pbrMetallicRoughness" : {
                "baseColorFactor" : [
                    0.20322999358177185,
                    0.4530999958515167,
                    0.006899999920278788,
                    1.0
                ],
                "metallicFactor" : 0.0
            }
        },
        {
            "name" : "orange_book",
            "pbrMetallicRoughness" : {
                "baseColorFactor" : [
                    0.9265000224113464,
                    0.5433200001716614,
                    0.09350000321865082,
                    1.0
                ],
                "metallicFactor" : 0.0
            }
        },
        {
            "name" : "red_book",
            "pbrMetallicRoughness" : {
                "baseColorFactor" : [
                    0.5400000214576721,
                    0.0,
                    0.0,
                    1.0
                ],
                "metallicFactor" : 0.0
            }
        },
        {
            "name" : "white_book",
            "pbrMetallicRoughness" : {
                "baseColorFactor" : [
                    0.9164000153541565,
                    0.905489981174469,
                    0.6435999870300293,
                    1.0
                ],
                "metallicFactor" : 0.0
            }
        }
    ],
    "meshes" : [
        {
            "name" : "red_book",
            "primitives" : [
                {
                    "attributes" : {
                        "NORMAL" : 2,
                        "POSITION" : 1
                    },
                    "indices" : 0,
                    "material" : 4
                },
                {
                    "attributes" : {
                        "NORMAL" : 5,
                        "POSITION" : 4
                    },
                    "indices" : 3,
                    "material" : 3
                },
                {
                    "attributes" : {
                        "NORMAL" : 8,
                        "POSITION" : 7
                    },
                    "indices" : 6,
                    "material" : 2
                },
                {
                    "attributes" : {
                        "NORMAL" : 11,
                        "POSITION" : 10
                    },
                    "indices" : 9,
                    "material" : 0
                },
                {
                    "attributes" : {
                        "NORMAL" : 14,
                        "POSITION" : 13
                    },
                    "indices" : 12,
                    "material" : 1
                }
            ]
        }
    ],
    "nodes" : [
        {
            "mesh" : 0,
            "name" : "red_book",
            "rotation" : [
                0.7071068286895752,
                0.0,
                -0.0,
                0.7071067094802856
            ]
        }
    ],
    "scene" : 0,
    "scenes" : [
        {
            "name" : "Scene",
            "nodes" : [
                0
            ]
        }
    ]
}
