{
    "accessors" : [
        {
            "bufferView" : 0,
            "componentType" : 5123,
            "count" : 192,
            "max" : [
                49
            ],
            "min" : [
                0
            ],
            "type" : "SCALAR"
        },
        {
            "bufferView" : 1,
            "componentType" : 5126,
            "count" : 50,
            "max" : [
                0.05105245113372803,
                0.03893590718507767,
                0.030810236930847168
            ],
            "min" : [
                -0.17215752601623535,
                -0.1842740774154663,
                -0.7531198263168335
            ],
            "type" : "VEC3"
        },
        {
            "bufferView" : 2,
            "componentType" : 5126,
            "count" : 50,
            "max" : [
                0.999664306640625,
                0.999542236328125,
                1.0
            ],
            "min" : [
                -0.999603271484375,
                -0.999603271484375,
                -1.0
            ],
            "type" : "VEC3"
        }
    ],
    "asset" : {
        "generator" : "Khronos Blender glTF 2.0 exporter",
        "version" : "2.0"
    },
    "bufferViews" : [
        {
            "buffer" : 0,
            "byteLength" : 384,
            "byteOffset" : 0,
            "target" : 34963
        },
        {
            "buffer" : 0,
            "byteLength" : 600,
            "byteOffset" : 384,
            "target" : 34962
        },
        {
            "buffer" : 0,
            "byteLength" : 600,
            "byteOffset" : 984,
            "target" : 34962
        }
    ],
    "buffers" : [
        {
            "byteLength" : 1584,
            "uri" : "candleStick.bin"
        }
    ],
    "materials" : [
        {
            "name" : "red",
            "pbrMetallicRoughness" : {
                "baseColorFactor" : [
                    0.640000066757203,
                    0.01869321493347309,
                    0.010635219672847085,
                    1.0
                ],
                "metallicFactor" : 0.0
            }
        }
    ],
    "meshes" : [
        {
            "name" : "bougie1",
            "primitives" : [
                {
                    "attributes" : {
                        "NORMAL" : 2,
                        "POSITION" : 1
                    },
                    "indices" : 0,
                    "material" : 0
                }
            ]
        }
    ],
    "nodes" : [
        {
            "mesh" : 0,
            "name" : "bougie1",
            "rotation" : [
                0.7071068286895752,
                0.0,
                -0.0,
                0.7071067094802856
            ],
            "scale" : [
                0.10471006482839584,
                0.10471006482839584,
                0.10471006482839584
            ],
            "translation" : [
                0.0016058310866355896,
                -0.0030809640884399414,
                -0.009939775802195072
            ]
        }
    ],
    "scene" : 0,
    "scenes" : [
        {
            "name" : "Scene",
            "nodes" : [
                0
            ]
        }
    ]
}
