{
    "accessors" : [
        {
            "bufferView" : 0,
            "componentType" : 5123,
            "count" : 21504,
            "max" : [
                3934
            ],
            "min" : [
                0
            ],
            "type" : "SCALAR"
        },
        {
            "bufferView" : 1,
            "componentType" : 5126,
            "count" : 3935,
            "max" : [
                0.2856999933719635,
                0.4449999928474426,
                -0.5045999884605408
            ],
            "min" : [
                -0.26420000195503235,
                -0.90829998254776,
                -1.532099962234497
            ],
            "type" : "VEC3"
        },
        {
            "bufferView" : 2,
            "componentType" : 5126,
            "count" : 3935,
            "max" : [
                0.99957275390625,
                0.9996337890625,
                0.9988707900047302
            ],
            "min" : [
                -0.99969482421875,
                -0.9981078505516052,
                -0.999725341796875
            ],
            "type" : "VEC3"
        },
        {
            "bufferView" : 3,
            "componentType" : 5126,
            "count" : 3935,
            "max" : [
                0.9999887943267822,
                0.9996441602706909,
                0.9995951056480408,
                1.0
            ],
            "min" : [
                -0.9999966025352478,
                -0.9979274272918701,
                -0.9995476007461548,
                -1.0
            ],
            "type" : "VEC4"
        },
        {
            "bufferView" : 4,
            "componentType" : 5126,
            "count" : 3935,
            "max" : [
                0.9240000247955322,
                0.9814999997615814
            ],
            "min" : [
                0.01850000023841858,
                0.01849997043609619
            ],
            "type" : "VEC2"
        },
        {
            "bufferView" : 5,
            "componentType" : 5123,
            "count" : 65352,
            "max" : [
                11989
            ],
            "min" : [
                0
            ],
            "type" : "SCALAR"
        },
        {
            "bufferView" : 6,
            "componentType" : 5126,
            "count" : 11990,
            "max" : [
                0.28049999475479126,
                1.0242999792099,
                -0.47589999437332153
            ],
            "min" : [
                -0.25690001249313354,
                -1.0424000024795532,
                -1.7771999835968018
            ],
            "type" : "VEC3"
        },
        {
            "bufferView" : 7,
            "componentType" : 5126,
            "count" : 11990,
            "max" : [
                0.999969482421875,
                0.999969482421875,
                0.999908447265625
            ],
            "min" : [
                -0.999969482421875,
                -0.999603271484375,
                -0.999969482421875
            ],
            "type" : "VEC3"
        },
        {
            "bufferView" : 8,
            "componentType" : 5126,
            "count" : 11990,
            "max" : [
                0.9998753070831299,
                0.9997625946998596,
                0.9999259114265442,
                1.0
            ],
            "min" : [
                -0.9999351501464844,
                -0.9995279908180237,
                -0.9993317127227783,
                -1.0
            ],
            "type" : "VEC4"
        },
        {
            "bufferView" : 9,
            "componentType" : 5126,
            "count" : 11990,
            "max" : [
                0.9935150146484375,
                0.9903929997235537
            ],
            "min" : [
                0.009208000265061855,
                0.026144027709960938
            ],
            "type" : "VEC2"
        }
    ],
    "asset" : {
        "generator" : "Khronos Blender glTF 2.0 exporter",
        "version" : "2.0"
    },
    "bufferViews" : [
        {
            "buffer" : 0,
            "byteLength" : 43008,
            "byteOffset" : 0,
            "target" : 34963
        },
        {
            "buffer" : 0,
            "byteLength" : 47220,
            "byteOffset" : 43008,
            "target" : 34962
        },
        {
            "buffer" : 0,
            "byteLength" : 47220,
            "byteOffset" : 90228,
            "target" : 34962
        },
        {
            "buffer" : 0,
            "byteLength" : 62960,
            "byteOffset" : 137448,
            "target" : 34962
        },
        {
            "buffer" : 0,
            "byteLength" : 31480,
            "byteOffset" : 200408,
            "target" : 34962
        },
        {
            "buffer" : 0,
            "byteLength" : 130704,
            "byteOffset" : 231888,
            "target" : 34963
        },
        {
            "buffer" : 0,
            "byteLength" : 143880,
            "byteOffset" : 362592,
            "target" : 34962
        },
        {
            "buffer" : 0,
            "byteLength" : 143880,
            "byteOffset" : 506472,
            "target" : 34962
        },
        {
            "buffer" : 0,
            "byteLength" : 191840,
            "byteOffset" : 650352,
            "target" : 34962
        },
        {
            "buffer" : 0,
            "byteLength" : 95920,
            "byteOffset" : 842192,
            "target" : 34962
        }
    ],
    "buffers" : [
        {
            "byteLength" : 938112,
            "uri" : "chuckyV4.bin"
        }
    ],
    "images" : [
        {
            "name" : "male_casualsuit06_diffuse",
            "uri" : "male_casualsuit06_diffuse.png"
        },
        {
            "name" : "young_lightskinned_male_diffuse3",
            "uri" : "young_lightskinned_male_diffuse3.png"
        }
    ],
    "materials" : [
        {
            "alphaMode" : "BLEND",
            "name" : "male_casualsuit06",
            "pbrMetallicRoughness" : {
                "baseColorFactor" : [
                    1.0,
                    1.0,
                    1.0,
                    0.0
                ],
                "baseColorTexture" : {
                    "index" : 0
                },
                "metallicFactor" : 0.0
            }
        },
        {
            "alphaMode" : "BLEND",
            "name" : "young_asian_male",
            "pbrMetallicRoughness" : {
                "baseColorFactor" : [
                    1.0,
                    0.949999988079071,
                    0.8500000238418579,
                    0.0
                ],
                "baseColorTexture" : {
                    "index" : 1
                },
                "metallicFactor" : 0.0
            }
        }
    ],
    "meshes" : [
        {
            "name" : "male_casualsuit06.obj",
            "primitives" : [
                {
                    "attributes" : {
                        "NORMAL" : 2,
                        "POSITION" : 1,
                        "TANGENT" : 3,
                        "TEXCOORD_0" : 4
                    },
                    "indices" : 0,
                    "material" : 0
                }
            ]
        },
        {
            "name" : "base.obj",
            "primitives" : [
                {
                    "attributes" : {
                        "NORMAL" : 7,
                        "POSITION" : 6,
                        "TANGENT" : 8,
                        "TEXCOORD_0" : 9
                    },
                    "indices" : 5,
                    "material" : 1
                }
            ]
        }
    ],
    "nodes" : [
        {
            "mesh" : 1,
            "name" : "base.obj",
            "rotation" : [
                0.7071068286895752,
                0.0,
                -0.0,
                0.7071067094802856
            ]
        },
        {
            "name" : "Camera",
            "rotation" : [
                0.483536034822464,
                0.33687159419059753,
                -0.20870360732078552,
                0.7804827094078064
            ],
            "translation" : [
                7.481131553649902,
                5.34366512298584,
                6.5076398849487305
            ]
        },
        {
            "name" : "Lamp",
            "rotation" : [
                0.16907575726509094,
                0.7558802962303162,
                -0.27217137813568115,
                0.570947527885437
            ],
            "scale" : [
                1.0,
                1.0,
                0.9999999403953552
            ],
            "translation" : [
                4.076245307922363,
                5.903861999511719,
                -1.0054539442062378
            ]
        },
        {
            "mesh" : 0,
            "name" : "male_casualsuit06.obj",
            "rotation" : [
                0.7071068286895752,
                0.0,
                -0.0,
                0.7071067094802856
            ]
        }
    ],
    "samplers" : [
        {}
    ],
    "scene" : 0,
    "scenes" : [
        {
            "name" : "Scene",
            "nodes" : [
                0,
                3,
                2,
                1
            ]
        }
    ],
    "textures" : [
        {
            "sampler" : 0,
            "source" : 0
        },
        {
            "sampler" : 0,
            "source" : 1
        }
    ]
}
