{
    "accessors" : [
        {
            "bufferView" : 0,
            "componentType" : 5123,
            "count" : 80262,
            "max" : [
                53509
            ],
            "min" : [
                0
            ],
            "type" : "SCALAR"
        },
        {
            "bufferView" : 1,
            "componentType" : 5126,
            "count" : 53510,
            "max" : [
                51.73394775390625,
                54.49097442626953,
                66.85740661621094
            ],
            "min" : [
                -24.31372833251953,
                -12.175102233886719,
                -2.142131805419922
            ],
            "type" : "VEC3"
        },
        {
            "bufferView" : 2,
            "componentType" : 5126,
            "count" : 53510,
            "max" : [
                0.9999406933784485,
                0.9999775886535645,
                0.9999654293060303
            ],
            "min" : [
                -0.9997305870056152,
                -0.9997919201850891,
                -0.9999904036521912
            ],
            "type" : "VEC3"
        },
        {
            "bufferView" : 3,
            "componentType" : 5126,
            "count" : 53510,
            "max" : [
                0.9999434947967529,
                0.9996705651283264,
                0.9999945759773254,
                -1.0
            ],
            "min" : [
                -0.999940812587738,
                -0.9998568892478943,
                -0.9998661279678345,
                -1.0
            ],
            "type" : "VEC4"
        },
        {
            "bufferView" : 4,
            "componentType" : 5126,
            "count" : 53510,
            "max" : [
                0.9935150146484375,
                0.9903929997235537
            ],
            "min" : [
                0.009208000265061855,
                0.026144027709960938
            ],
            "type" : "VEC2"
        },
        {
            "bufferView" : 5,
            "componentType" : 5123,
            "count" : 20958,
            "max" : [
                13971
            ],
            "min" : [
                0
            ],
            "type" : "SCALAR"
        },
        {
            "bufferView" : 6,
            "componentType" : 5126,
            "count" : 13972,
            "max" : [
                46.909332275390625,
                51.612152099609375,
                44.535396575927734
            ],
            "min" : [
                -8.642559051513672,
                0.24336624145507812,
                5.8813934326171875
            ],
            "type" : "VEC3"
        },
        {
            "bufferView" : 7,
            "componentType" : 5126,
            "count" : 13972,
            "max" : [
                0.9994640350341797,
                0.9999592304229736,
                0.9998766183853149
            ],
            "min" : [
                -0.9999499917030334,
                -0.9999255537986755,
                -0.9997161626815796
            ],
            "type" : "VEC3"
        },
        {
            "bufferView" : 8,
            "componentType" : 5126,
            "count" : 13972,
            "max" : [
                0.9995459318161011,
                0.9990869760513306,
                0.9998360872268677,
                -1.0
            ],
            "min" : [
                -0.9996146559715271,
                -0.9999746680259705,
                -0.999868631362915,
                -1.0
            ],
            "type" : "VEC4"
        },
        {
            "bufferView" : 9,
            "componentType" : 5126,
            "count" : 13972,
            "max" : [
                0.9789000153541565,
                0.9565000012516975
            ],
            "min" : [
                0.032099999487400055,
                0.025399982929229736
            ],
            "type" : "VEC2"
        },
        {
            "bufferView" : 10,
            "componentType" : 5123,
            "count" : 792,
            "max" : [
                729
            ],
            "min" : [
                0
            ],
            "type" : "SCALAR"
        },
        {
            "bufferView" : 11,
            "componentType" : 5126,
            "count" : 730,
            "max" : [
                1.0132499933242798,
                18.25139045715332,
                0.7981799840927124
            ],
            "min" : [
                -2.066610097885132,
                6.370389938354492,
                -0.8018199801445007
            ],
            "type" : "VEC3"
        },
        {
            "bufferView" : 12,
            "componentType" : 5126,
            "count" : 730,
            "max" : [
                0.9999997615814209,
                0.9999999403953552,
                1.0
            ],
            "min" : [
                -0.9955390095710754,
                -0.9745656847953796,
                -1.0
            ],
            "type" : "VEC3"
        },
        {
            "bufferView" : 13,
            "componentType" : 5126,
            "count" : 730,
            "max" : [
                1.0,
                0.0,
                -0.0,
                1.0
            ],
            "min" : [
                1.0,
                0.0,
                -0.0,
                -1.0
            ],
            "type" : "VEC4"
        },
        {
            "bufferView" : 14,
            "componentType" : 5126,
            "count" : 730,
            "max" : [
                0.0,
                1.0
            ],
            "min" : [
                0.0,
                1.0
            ],
            "type" : "VEC2"
        },
        {
            "bufferView" : 15,
            "componentType" : 5123,
            "count" : 516,
            "max" : [
                343
            ],
            "min" : [
                0
            ],
            "type" : "SCALAR"
        },
        {
            "bufferView" : 16,
            "componentType" : 5126,
            "count" : 344,
            "max" : [
                -5.875953674316406,
                -0.13894271850585938,
                27.60504913330078
            ],
            "min" : [
                -12.733657836914062,
                -7.511188507080078,
                17.782955169677734
            ],
            "type" : "VEC3"
        },
        {
            "bufferView" : 17,
            "componentType" : 5126,
            "count" : 344,
            "max" : [
                0.9318315982818604,
                0.9990957975387573,
                0.9870691895484924
            ],
            "min" : [
                -0.9660895466804504,
                -0.9287222623825073,
                -0.9826993942260742
            ],
            "type" : "VEC3"
        },
        {
            "bufferView" : 18,
            "componentType" : 5126,
            "count" : 344,
            "max" : [
                0.8048433065414429,
                0.8561071753501892,
                0.998087465763092,
                1.0
            ],
            "min" : [
                -0.7666706442832947,
                -0.8919950723648071,
                -0.9980074763298035,
                -1.0
            ],
            "type" : "VEC4"
        },
        {
            "bufferView" : 19,
            "componentType" : 5126,
            "count" : 344,
            "max" : [
                0.964900016784668,
                0.9673000015318394
            ],
            "min" : [
                0.02759999968111515,
                0.028400003910064697
            ],
            "type" : "VEC2"
        },
        {
            "bufferView" : 20,
            "componentType" : 5123,
            "count" : 10032,
            "max" : [
                6687
            ],
            "min" : [
                0
            ],
            "type" : "SCALAR"
        },
        {
            "bufferView" : 21,
            "componentType" : 5126,
            "count" : 6688,
            "max" : [
                -6.1841278076171875,
                11.408832550048828,
                38.129024505615234
            ],
            "min" : [
                -25.53985595703125,
                -13.692344665527344,
                15.484118461608887
            ],
            "type" : "VEC3"
        },
        {
            "bufferView" : 22,
            "componentType" : 5126,
            "count" : 6688,
            "max" : [
                0.9951758980751038,
                0.9991381168365479,
                0.9999926090240479
            ],
            "min" : [
                -0.98976731300354,
                -0.9998486638069153,
                -0.9989783763885498
            ],
            "type" : "VEC3"
        },
        {
            "bufferView" : 23,
            "componentType" : 5126,
            "count" : 6688,
            "max" : [
                0.8745463490486145,
                0.999433159828186,
                0.9967344999313354,
                -1.0
            ],
            "min" : [
                -0.9990457892417908,
                -0.9998811483383179,
                -0.9980029463768005,
                -1.0
            ],
            "type" : "VEC4"
        },
        {
            "bufferView" : 24,
            "componentType" : 5126,
            "count" : 6688,
            "max" : [
                0.9246000051498413,
                0.9878000002354383
            ],
            "min" : [
                0.06469999998807907,
                0.03100001811981201
            ],
            "type" : "VEC2"
        },
        {
            "bufferView" : 25,
            "componentType" : 5123,
            "count" : 1158,
            "max" : [
                436
            ],
            "min" : [
                0
            ],
            "type" : "SCALAR"
        },
        {
            "bufferView" : 26,
            "componentType" : 5126,
            "count" : 437,
            "max" : [
                0.9458400011062622,
                7.176909923553467,
                0.06818000227212906
            ],
            "min" : [
                -1.5449999570846558,
                -13.602760314941406,
                -0.07181999832391739
            ],
            "type" : "VEC3"
        },
        {
            "bufferView" : 27,
            "componentType" : 5126,
            "count" : 437,
            "max" : [
                1.0,
                1.0,
                1.0
            ],
            "min" : [
                -0.999969482421875,
                -1.0,
                -1.0
            ],
            "type" : "VEC3"
        },
        {
            "bufferView" : 28,
            "componentType" : 5126,
            "count" : 437,
            "max" : [
                1.0,
                0.0,
                -0.0,
                1.0
            ],
            "min" : [
                1.0,
                0.0,
                -0.0,
                -1.0
            ],
            "type" : "VEC4"
        },
        {
            "bufferView" : 29,
            "componentType" : 5126,
            "count" : 437,
            "max" : [
                0.0,
                1.0
            ],
            "min" : [
                0.0,
                1.0
            ],
            "type" : "VEC2"
        }
    ],
    "asset" : {
        "generator" : "Khronos Blender glTF 2.0 exporter",
        "version" : "2.0"
    },
    "bufferViews" : [
        {
            "buffer" : 0,
            "byteLength" : 160524,
            "byteOffset" : 0,
            "target" : 34963
        },
        {
            "buffer" : 0,
            "byteLength" : 642120,
            "byteOffset" : 160524,
            "target" : 34962
        },
        {
            "buffer" : 0,
            "byteLength" : 642120,
            "byteOffset" : 802644,
            "target" : 34962
        },
        {
            "buffer" : 0,
            "byteLength" : 856160,
            "byteOffset" : 1444764,
            "target" : 34962
        },
        {
            "buffer" : 0,
            "byteLength" : 428080,
            "byteOffset" : 2300924,
            "target" : 34962
        },
        {
            "buffer" : 0,
            "byteLength" : 41916,
            "byteOffset" : 2729004,
            "target" : 34963
        },
        {
            "buffer" : 0,
            "byteLength" : 167664,
            "byteOffset" : 2770920,
            "target" : 34962
        },
        {
            "buffer" : 0,
            "byteLength" : 167664,
            "byteOffset" : 2938584,
            "target" : 34962
        },
        {
            "buffer" : 0,
            "byteLength" : 223552,
            "byteOffset" : 3106248,
            "target" : 34962
        },
        {
            "buffer" : 0,
            "byteLength" : 111776,
            "byteOffset" : 3329800,
            "target" : 34962
        },
        {
            "buffer" : 0,
            "byteLength" : 1584,
            "byteOffset" : 3441576,
            "target" : 34963
        },
        {
            "buffer" : 0,
            "byteLength" : 8760,
            "byteOffset" : 3443160,
            "target" : 34962
        },
        {
            "buffer" : 0,
            "byteLength" : 8760,
            "byteOffset" : 3451920,
            "target" : 34962
        },
        {
            "buffer" : 0,
            "byteLength" : 11680,
            "byteOffset" : 3460680,
            "target" : 34962
        },
        {
            "buffer" : 0,
            "byteLength" : 5840,
            "byteOffset" : 3472360,
            "target" : 34962
        },
        {
            "buffer" : 0,
            "byteLength" : 1032,
            "byteOffset" : 3478200,
            "target" : 34963
        },
        {
            "buffer" : 0,
            "byteLength" : 4128,
            "byteOffset" : 3479232,
            "target" : 34962
        },
        {
            "buffer" : 0,
            "byteLength" : 4128,
            "byteOffset" : 3483360,
            "target" : 34962
        },
        {
            "buffer" : 0,
            "byteLength" : 5504,
            "byteOffset" : 3487488,
            "target" : 34962
        },
        {
            "buffer" : 0,
            "byteLength" : 2752,
            "byteOffset" : 3492992,
            "target" : 34962
        },
        {
            "buffer" : 0,
            "byteLength" : 20064,
            "byteOffset" : 3495744,
            "target" : 34963
        },
        {
            "buffer" : 0,
            "byteLength" : 80256,
            "byteOffset" : 3515808,
            "target" : 34962
        },
        {
            "buffer" : 0,
            "byteLength" : 80256,
            "byteOffset" : 3596064,
            "target" : 34962
        },
        {
            "buffer" : 0,
            "byteLength" : 107008,
            "byteOffset" : 3676320,
            "target" : 34962
        },
        {
            "buffer" : 0,
            "byteLength" : 53504,
            "byteOffset" : 3783328,
            "target" : 34962
        },
        {
            "buffer" : 0,
            "byteLength" : 2316,
            "byteOffset" : 3836832,
            "target" : 34963
        },
        {
            "buffer" : 0,
            "byteLength" : 5244,
            "byteOffset" : 3839148,
            "target" : 34962
        },
        {
            "buffer" : 0,
            "byteLength" : 5244,
            "byteOffset" : 3844392,
            "target" : 34962
        },
        {
            "buffer" : 0,
            "byteLength" : 6992,
            "byteOffset" : 3849636,
            "target" : 34962
        },
        {
            "buffer" : 0,
            "byteLength" : 3496,
            "byteOffset" : 3856628,
            "target" : 34962
        }
    ],
    "buffers" : [
        {
            "byteLength" : 3860124,
            "uri" : "chuckyV3.bin"
        }
    ],
    "images" : [
        {
            "name" : "brown_eye",
            "uri" : "brown_eye.png"
        },
        {
            "name" : "male_worksuit01_diffuse",
            "uri" : "male_worksuit01_diffuse.png"
        },
        {
            "name" : "young_lightskinned_male_diffuse",
            "uri" : "young_lightskinned_male_diffuse.png"
        },
        {
            "name" : "short02_diffuse",
            "uri" : "short02_diffuse.png"
        }
    ],
    "materials" : [
        {
            "name" : "Black",
            "pbrMetallicRoughness" : {
                "baseColorFactor" : [
                    0.18000000715255737,
                    0.18000000715255737,
                    0.18000000715255737,
                    1.0
                ],
                "metallicFactor" : 0.0
            }
        },
        {
            "alphaMode" : "BLEND",
            "name" : "Eye_brown",
            "pbrMetallicRoughness" : {
                "baseColorFactor" : [
                    1.0,
                    1.0,
                    1.0,
                    0.0
                ],
                "baseColorTexture" : {
                    "index" : 0
                },
                "metallicFactor" : 0.0
            }
        },
        {
            "name" : "gris_acier",
            "pbrMetallicRoughness" : {
                "baseColorFactor" : [
                    0.5899999737739563,
                    0.5899999737739563,
                    0.5899999737739563,
                    1.0
                ],
                "metallicFactor" : 0.0
            }
        },
        {
            "alphaMode" : "BLEND",
            "name" : "male_worksuit01",
            "pbrMetallicRoughness" : {
                "baseColorFactor" : [
                    1.0,
                    1.0,
                    1.0,
                    0.0
                ],
                "baseColorTexture" : {
                    "index" : 1
                },
                "metallicFactor" : 0.0
            }
        },
        {
            "alphaMode" : "BLEND",
            "name" : "old_caucasian_male_detailed",
            "pbrMetallicRoughness" : {
                "baseColorFactor" : [
                    1.0,
                    1.0,
                    1.0,
                    0.0
                ],
                "baseColorTexture" : {
                    "index" : 2
                },
                "metallicFactor" : 0.0
            }
        },
        {
            "alphaMode" : "BLEND",
            "name" : "short02",
            "pbrMetallicRoughness" : {
                "baseColorFactor" : [
                    1.0,
                    1.0,
                    1.0,
                    0.0
                ],
                "baseColorTexture" : {
                    "index" : 3
                },
                "metallicFactor" : 0.0
            }
        }
    ],
    "meshes" : [
        {
            "name" : "Cylinder_6",
            "primitives" : [
                {
                    "attributes" : {
                        "NORMAL" : 2,
                        "POSITION" : 1,
                        "TANGENT" : 3,
                        "TEXCOORD_0" : 4
                    },
                    "indices" : 0,
                    "material" : 4
                },
                {
                    "attributes" : {
                        "NORMAL" : 7,
                        "POSITION" : 6,
                        "TANGENT" : 8,
                        "TEXCOORD_0" : 9
                    },
                    "indices" : 5,
                    "material" : 3
                },
                {
                    "attributes" : {
                        "NORMAL" : 12,
                        "POSITION" : 11,
                        "TANGENT" : 13,
                        "TEXCOORD_0" : 14
                    },
                    "indices" : 10,
                    "material" : 0
                },
                {
                    "attributes" : {
                        "NORMAL" : 17,
                        "POSITION" : 16,
                        "TANGENT" : 18,
                        "TEXCOORD_0" : 19
                    },
                    "indices" : 15,
                    "material" : 1
                },
                {
                    "attributes" : {
                        "NORMAL" : 22,
                        "POSITION" : 21,
                        "TANGENT" : 23,
                        "TEXCOORD_0" : 24
                    },
                    "indices" : 20,
                    "material" : 5
                },
                {
                    "attributes" : {
                        "NORMAL" : 27,
                        "POSITION" : 26,
                        "TANGENT" : 28,
                        "TEXCOORD_0" : 29
                    },
                    "indices" : 25,
                    "material" : 2
                }
            ]
        }
    ],
    "nodes" : [
        {
            "mesh" : 0,
            "name" : "Cylinder_6",
            "rotation" : [
                -0.529028594493866,
                0.2822665870189667,
                -0.6929211020469666,
                0.4003933072090149
            ],
            "scale" : [
                0.005210543982684612,
                0.005210543982684612,
                0.005210543982684612
            ],
            "translation" : [
                -0.15343806147575378,
                0.2929331064224243,
                -0.0012444667518138885
            ]
        }
    ],
    "samplers" : [
        {}
    ],
    "scene" : 0,
    "scenes" : [
        {
            "name" : "Scene",
            "nodes" : [
                0
            ]
        }
    ],
    "textures" : [
        {
            "sampler" : 0,
            "source" : 0
        },
        {
            "sampler" : 0,
            "source" : 1
        },
        {
            "sampler" : 0,
            "source" : 2
        },
        {
            "sampler" : 0,
            "source" : 3
        }
    ]
}
