{
    "accessors" : [
        {
            "bufferView" : 0,
            "componentType" : 5123,
            "count" : 20160,
            "max" : [
                3691
            ],
            "min" : [
                0
            ],
            "type" : "SCALAR"
        },
        {
            "bufferView" : 1,
            "componentType" : 5126,
            "count" : 3692,
            "max" : [
                0.21215631067752838,
                0.12051036208868027,
                -1.0975228548049927
            ],
            "min" : [
                0.10966851562261581,
                0.04791780188679695,
                -1.187562108039856
            ],
            "type" : "VEC3"
        },
        {
            "bufferView" : 2,
            "componentType" : 5126,
            "count" : 3692,
            "max" : [
                0.9956663846969604,
                1.0,
                0.9959715604782104
            ],
            "min" : [
                -0.9956358671188354,
                -1.0,
                -0.9959715604782104
            ],
            "type" : "VEC3"
        },
        {
            "bufferView" : 3,
            "componentType" : 5126,
            "count" : 3692,
            "max" : [
                1.0,
                0.9961014986038208,
                1.0,
                1.0
            ],
            "min" : [
                -1.0,
                -0.9960950613021851,
                -1.0,
                -1.0
            ],
            "type" : "VEC4"
        },
        {
            "bufferView" : 4,
            "componentType" : 5126,
            "count" : 3692,
            "max" : [
                1.0,
                1.0
            ],
            "min" : [
                0.0,
                0.0
            ],
            "type" : "VEC2"
        },
        {
            "bufferView" : 5,
            "componentType" : 5123,
            "count" : 7128,
            "max" : [
                1615
            ],
            "min" : [
                0
            ],
            "type" : "SCALAR"
        },
        {
            "bufferView" : 6,
            "componentType" : 5126,
            "count" : 1616,
            "max" : [
                1.069867730140686,
                0.1111985445022583,
                -0.21411806344985962
            ],
            "min" : [
                1.0542608499526978,
                0.05718955397605896,
                -2.067336082458496
            ],
            "type" : "VEC3"
        },
        {
            "bufferView" : 7,
            "componentType" : 5126,
            "count" : 1616,
            "max" : [
                1.0,
                1.0,
                -0.0
            ],
            "min" : [
                -1.0,
                -1.0,
                -0.0
            ],
            "type" : "VEC3"
        },
        {
            "bufferView" : 8,
            "componentType" : 5126,
            "count" : 1616,
            "max" : [
                4.777114372700453e-05,
                1.0,
                1.0946199323477387e-13,
                1.0
            ],
            "min" : [
                -4.777114372700453e-05,
                -1.132503712142352e-05,
                -1.0,
                -1.0
            ],
            "type" : "VEC4"
        },
        {
            "bufferView" : 9,
            "componentType" : 5126,
            "count" : 1616,
            "max" : [
                2.0,
                1.0
            ],
            "min" : [
                0.0,
                0.0
            ],
            "type" : "VEC2"
        },
        {
            "bufferView" : 10,
            "componentType" : 5123,
            "count" : 28200,
            "max" : [
                6639
            ],
            "min" : [
                0
            ],
            "type" : "SCALAR"
        },
        {
            "bufferView" : 11,
            "componentType" : 5126,
            "count" : 6640,
            "max" : [
                1.0671422481536865,
                0.10421743243932724,
                -0.006634126417338848
            ],
            "min" : [
                0.08791482448577881,
                0.06421073526144028,
                -2.2697372436523438
            ],
            "type" : "VEC3"
        },
        {
            "bufferView" : 12,
            "componentType" : 5126,
            "count" : 6640,
            "max" : [
                1.0,
                1.0,
                1.0
            ],
            "min" : [
                -1.0,
                -1.0,
                -1.0
            ],
            "type" : "VEC3"
        },
        {
            "bufferView" : 13,
            "componentType" : 5126,
            "count" : 6640,
            "max" : [
                1.0,
                1.0,
                1.0,
                1.0
            ],
            "min" : [
                -1.0,
                -1.0,
                -1.0,
                -1.0
            ],
            "type" : "VEC4"
        },
        {
            "bufferView" : 14,
            "componentType" : 5126,
            "count" : 6640,
            "max" : [
                1.0,
                1.0
            ],
            "min" : [
                0.0,
                0.0
            ],
            "type" : "VEC2"
        },
        {
            "bufferView" : 15,
            "componentType" : 5123,
            "count" : 216,
            "max" : [
                63
            ],
            "min" : [
                0
            ],
            "type" : "SCALAR"
        },
        {
            "bufferView" : 16,
            "componentType" : 5126,
            "count" : 64,
            "max" : [
                1.0619460344314575,
                0.1111687570810318,
                -0.21411806344985962
            ],
            "min" : [
                1.0619460344314575,
                0.06952378898859024,
                -2.067336082458496
            ],
            "type" : "VEC3"
        },
        {
            "bufferView" : 17,
            "componentType" : 5126,
            "count" : 64,
            "max" : [
                -0.999969482421875,
                0.0,
                -0.0
            ],
            "min" : [
                -1.0,
                0.0,
                -0.0
            ],
            "type" : "VEC3"
        },
        {
            "bufferView" : 18,
            "componentType" : 5126,
            "count" : 64,
            "max" : [
                0.0003355423978064209,
                1.0,
                5.4004118885120356e-12,
                1.0
            ],
            "min" : [
                -0.00033554233959876,
                0.9999998807907104,
                -5.519826817845797e-10,
                -1.0
            ],
            "type" : "VEC4"
        },
        {
            "bufferView" : 19,
            "componentType" : 5126,
            "count" : 64,
            "max" : [
                1.0,
                1.0
            ],
            "min" : [
                0.0,
                0.0
            ],
            "type" : "VEC2"
        },
        {
            "bufferView" : 20,
            "componentType" : 5123,
            "count" : 5016,
            "max" : [
                1415
            ],
            "min" : [
                0
            ],
            "type" : "SCALAR"
        },
        {
            "bufferView" : 21,
            "componentType" : 5126,
            "count" : 1416,
            "max" : [
                1.1430425643920898,
                0.18227069079875946,
                -0.0
            ],
            "min" : [
                0.0,
                0.042857229709625244,
                -2.3506999015808105
            ],
            "type" : "VEC3"
        },
        {
            "bufferView" : 22,
            "componentType" : 5126,
            "count" : 1416,
            "max" : [
                1.0,
                1.0,
                1.0
            ],
            "min" : [
                -1.0,
                -1.0,
                -1.0
            ],
            "type" : "VEC3"
        },
        {
            "bufferView" : 23,
            "componentType" : 5126,
            "count" : 1416,
            "max" : [
                1.0,
                1.0,
                1.0,
                1.0
            ],
            "min" : [
                -1.0,
                -1.0,
                -1.0,
                -1.0
            ],
            "type" : "VEC4"
        },
        {
            "bufferView" : 24,
            "componentType" : 5126,
            "count" : 1416,
            "max" : [
                1.000059962272644,
                1.0
            ],
            "min" : [
                0.0,
                0.0
            ],
            "type" : "VEC2"
        },
        {
            "bufferView" : 25,
            "componentType" : 5123,
            "count" : 11808,
            "max" : [
                2195
            ],
            "min" : [
                0
            ],
            "type" : "SCALAR"
        },
        {
            "bufferView" : 26,
            "componentType" : 5126,
            "count" : 2196,
            "max" : [
                0.20277175307273865,
                0.16741806268692017,
                -1.1057852506637573
            ],
            "min" : [
                0.11904501169919968,
                0.0,
                -1.1792997121810913
            ],
            "type" : "VEC3"
        },
        {
            "bufferView" : 27,
            "componentType" : 5126,
            "count" : 2196,
            "max" : [
                0.999542236328125,
                0.999359130859375,
                0.9996337890625
            ],
            "min" : [
                -0.999542236328125,
                -0.999359130859375,
                -0.9996337890625
            ],
            "type" : "VEC3"
        },
        {
            "bufferView" : 28,
            "componentType" : 5126,
            "count" : 2196,
            "max" : [
                0.9994279146194458,
                0.999661386013031,
                0.9992030262947083,
                1.0
            ],
            "min" : [
                -0.9994285702705383,
                -0.999661922454834,
                -0.999248206615448,
                -1.0
            ],
            "type" : "VEC4"
        },
        {
            "bufferView" : 29,
            "componentType" : 5126,
            "count" : 2196,
            "max" : [
                1.0,
                1.0
            ],
            "min" : [
                0.0,
                0.0
            ],
            "type" : "VEC2"
        }
    ],
    "asset" : {
        "generator" : "Khronos Blender glTF 2.0 exporter",
        "version" : "2.0"
    },
    "bufferViews" : [
        {
            "buffer" : 0,
            "byteLength" : 40320,
            "byteOffset" : 0,
            "target" : 34963
        },
        {
            "buffer" : 0,
            "byteLength" : 44304,
            "byteOffset" : 40320,
            "target" : 34962
        },
        {
            "buffer" : 0,
            "byteLength" : 44304,
            "byteOffset" : 84624,
            "target" : 34962
        },
        {
            "buffer" : 0,
            "byteLength" : 59072,
            "byteOffset" : 128928,
            "target" : 34962
        },
        {
            "buffer" : 0,
            "byteLength" : 29536,
            "byteOffset" : 188000,
            "target" : 34962
        },
        {
            "buffer" : 0,
            "byteLength" : 14256,
            "byteOffset" : 217536,
            "target" : 34963
        },
        {
            "buffer" : 0,
            "byteLength" : 19392,
            "byteOffset" : 231792,
            "target" : 34962
        },
        {
            "buffer" : 0,
            "byteLength" : 19392,
            "byteOffset" : 251184,
            "target" : 34962
        },
        {
            "buffer" : 0,
            "byteLength" : 25856,
            "byteOffset" : 270576,
            "target" : 34962
        },
        {
            "buffer" : 0,
            "byteLength" : 12928,
            "byteOffset" : 296432,
            "target" : 34962
        },
        {
            "buffer" : 0,
            "byteLength" : 56400,
            "byteOffset" : 309360,
            "target" : 34963
        },
        {
            "buffer" : 0,
            "byteLength" : 79680,
            "byteOffset" : 365760,
            "target" : 34962
        },
        {
            "buffer" : 0,
            "byteLength" : 79680,
            "byteOffset" : 445440,
            "target" : 34962
        },
        {
            "buffer" : 0,
            "byteLength" : 106240,
            "byteOffset" : 525120,
            "target" : 34962
        },
        {
            "buffer" : 0,
            "byteLength" : 53120,
            "byteOffset" : 631360,
            "target" : 34962
        },
        {
            "buffer" : 0,
            "byteLength" : 432,
            "byteOffset" : 684480,
            "target" : 34963
        },
        {
            "buffer" : 0,
            "byteLength" : 768,
            "byteOffset" : 684912,
            "target" : 34962
        },
        {
            "buffer" : 0,
            "byteLength" : 768,
            "byteOffset" : 685680,
            "target" : 34962
        },
        {
            "buffer" : 0,
            "byteLength" : 1024,
            "byteOffset" : 686448,
            "target" : 34962
        },
        {
            "buffer" : 0,
            "byteLength" : 512,
            "byteOffset" : 687472,
            "target" : 34962
        },
        {
            "buffer" : 0,
            "byteLength" : 10032,
            "byteOffset" : 687984,
            "target" : 34963
        },
        {
            "buffer" : 0,
            "byteLength" : 16992,
            "byteOffset" : 698016,
            "target" : 34962
        },
        {
            "buffer" : 0,
            "byteLength" : 16992,
            "byteOffset" : 715008,
            "target" : 34962
        },
        {
            "buffer" : 0,
            "byteLength" : 22656,
            "byteOffset" : 732000,
            "target" : 34962
        },
        {
            "buffer" : 0,
            "byteLength" : 11328,
            "byteOffset" : 754656,
            "target" : 34962
        },
        {
            "buffer" : 0,
            "byteLength" : 23616,
            "byteOffset" : 765984,
            "target" : 34963
        },
        {
            "buffer" : 0,
            "byteLength" : 26352,
            "byteOffset" : 789600,
            "target" : 34962
        },
        {
            "buffer" : 0,
            "byteLength" : 26352,
            "byteOffset" : 815952,
            "target" : 34962
        },
        {
            "buffer" : 0,
            "byteLength" : 35136,
            "byteOffset" : 842304,
            "target" : 34962
        },
        {
            "buffer" : 0,
            "byteLength" : 17568,
            "byteOffset" : 877440,
            "target" : 34962
        }
    ],
    "buffers" : [
        {
            "byteLength" : 895008,
            "uri" : "doorPortal.bin"
        }
    ],
    "images" : [
        {
            "name" : "Hingeplate",
            "uri" : "Hingeplate.jpg"
        },
        {
            "name" : "Hinge",
            "uri" : "Hinge.jpg"
        }
    ],
    "materials" : [
        {
            "name" : "HingePlate2_37_37",
            "pbrMetallicRoughness" : {
                "baseColorTexture" : {
                    "index" : 0
                },
                "metallicFactor" : 0.0
            }
        },
        {
            "name" : "HingeTube1_36_36",
            "pbrMetallicRoughness" : {
                "baseColorTexture" : {
                    "index" : 1
                },
                "metallicFactor" : 0.0
            }
        },
        {
            "name" : "pCube222_5_5",
            "pbrMetallicRoughness" : {
                "baseColorFactor" : [
                    0.7504479885101318,
                    0.7504479885101318,
                    0.7504479885101318,
                    1.0
                ],
                "metallicFactor" : 0.0
            }
        },
        {
            "name" : "pCube55_32_32",
            "pbrMetallicRoughness" : {
                "baseColorFactor" : [
                    0.2815999984741211,
                    0.11103499680757523,
                    0.09180159866809845,
                    1.0
                ],
                "metallicFactor" : 0.0
            }
        },
        {
            "name" : "revolvedSurface41_2_2",
            "pbrMetallicRoughness" : {
                "baseColorFactor" : [
                    0.6471999883651733,
                    0.6471999883651733,
                    0.6471999883651733,
                    1.0
                ],
                "metallicFactor" : 0.0
            }
        },
        {
            "name" : "revolvedSurface42_1_1",
            "pbrMetallicRoughness" : {
                "baseColorFactor" : [
                    0.6471999883651733,
                    0.579584002494812,
                    0.4433319866657257,
                    1.0
                ],
                "metallicFactor" : 0.0
            }
        }
    ],
    "meshes" : [
        {
            "name" : "HingePlate21_40_40",
            "primitives" : [
                {
                    "attributes" : {
                        "NORMAL" : 2,
                        "POSITION" : 1,
                        "TANGENT" : 3,
                        "TEXCOORD_0" : 4
                    },
                    "indices" : 0,
                    "material" : 5
                },
                {
                    "attributes" : {
                        "NORMAL" : 7,
                        "POSITION" : 6,
                        "TANGENT" : 8,
                        "TEXCOORD_0" : 9
                    },
                    "indices" : 5,
                    "material" : 1
                },
                {
                    "attributes" : {
                        "NORMAL" : 12,
                        "POSITION" : 11,
                        "TANGENT" : 13,
                        "TEXCOORD_0" : 14
                    },
                    "indices" : 10,
                    "material" : 2
                },
                {
                    "attributes" : {
                        "NORMAL" : 17,
                        "POSITION" : 16,
                        "TANGENT" : 18,
                        "TEXCOORD_0" : 19
                    },
                    "indices" : 15,
                    "material" : 0
                },
                {
                    "attributes" : {
                        "NORMAL" : 22,
                        "POSITION" : 21,
                        "TANGENT" : 23,
                        "TEXCOORD_0" : 24
                    },
                    "indices" : 20,
                    "material" : 3
                },
                {
                    "attributes" : {
                        "NORMAL" : 27,
                        "POSITION" : 26,
                        "TANGENT" : 28,
                        "TEXCOORD_0" : 29
                    },
                    "indices" : 25,
                    "material" : 4
                }
            ]
        }
    ],
    "nodes" : [
        {
            "mesh" : 0,
            "name" : "doorPortal",
            "rotation" : [
                0.7071068286895752,
                0.0,
                -0.0,
                0.7071067094802856
            ]
        }
    ],
    "samplers" : [
        {}
    ],
    "scene" : 0,
    "scenes" : [
        {
            "name" : "Scene",
            "nodes" : [
                0
            ]
        }
    ],
    "textures" : [
        {
            "sampler" : 0,
            "source" : 0
        },
        {
            "sampler" : 0,
            "source" : 1
        }
    ]
}
