{
    "accessors" : [
        {
            "bufferView" : 0,
            "componentType" : 5123,
            "count" : 1158,
            "max" : [
                426
            ],
            "min" : [
                0
            ],
            "type" : "SCALAR"
        },
        {
            "bufferView" : 1,
            "componentType" : 5126,
            "count" : 427,
            "max" : [
                0.006952144205570221,
                0.07110701501369476,
                0.0013993207830935717
            ],
            "min" : [
                -0.017956256866455078,
                -0.1366897076368332,
                -6.792834028601646e-07
            ],
            "type" : "VEC3"
        },
        {
            "bufferView" : 2,
            "componentType" : 5126,
            "count" : 427,
            "max" : [
                1.0,
                1.0,
                1.0
            ],
            "min" : [
                -0.999969482421875,
                -1.0,
                -1.0
            ],
            "type" : "VEC3"
        },
        {
            "bufferView" : 3,
            "componentType" : 5123,
            "count" : 792,
            "max" : [
                720
            ],
            "min" : [
                0
            ],
            "type" : "SCALAR"
        },
        {
            "bufferView" : 4,
            "componentType" : 5126,
            "count" : 721,
            "max" : [
                0.007626243866980076,
                0.1818518191576004,
                0.008699321188032627
            ],
            "min" : [
                -0.02317235805094242,
                0.0630418136715889,
                -0.007300679571926594
            ],
            "type" : "VEC3"
        },
        {
            "bufferView" : 5,
            "componentType" : 5126,
            "count" : 721,
            "max" : [
                0.9999997615814209,
                1.0,
                1.0
            ],
            "min" : [
                -0.9955390691757202,
                -0.9745657444000244,
                -1.0
            ],
            "type" : "VEC3"
        }
    ],
    "asset" : {
        "generator" : "Khronos Blender glTF 2.0 exporter",
        "version" : "2.0"
    },
    "bufferViews" : [
        {
            "buffer" : 0,
            "byteLength" : 2316,
            "byteOffset" : 0,
            "target" : 34963
        },
        {
            "buffer" : 0,
            "byteLength" : 5124,
            "byteOffset" : 2316,
            "target" : 34962
        },
        {
            "buffer" : 0,
            "byteLength" : 5124,
            "byteOffset" : 7440,
            "target" : 34962
        },
        {
            "buffer" : 0,
            "byteLength" : 1584,
            "byteOffset" : 12564,
            "target" : 34963
        },
        {
            "buffer" : 0,
            "byteLength" : 8652,
            "byteOffset" : 14148,
            "target" : 34962
        },
        {
            "buffer" : 0,
            "byteLength" : 8652,
            "byteOffset" : 22800,
            "target" : 34962
        }
    ],
    "buffers" : [
        {
            "byteLength" : 31452,
            "uri" : "knife.bin"
        }
    ],
    "materials" : [
        {
            "name" : "Black",
            "pbrMetallicRoughness" : {
                "baseColorFactor" : [
                    0.18000000715255737,
                    0.18000000715255737,
                    0.18000000715255737,
                    1.0
                ],
                "metallicFactor" : 0.0
            }
        },
        {
            "name" : "gris_acier",
            "pbrMetallicRoughness" : {
                "baseColorFactor" : [
                    0.5899999737739563,
                    0.5899999737739563,
                    0.5899999737739563,
                    1.0
                ],
                "metallicFactor" : 0.0
            }
        }
    ],
    "meshes" : [
        {
            "name" : "Cylinder_6",
            "primitives" : [
                {
                    "attributes" : {
                        "NORMAL" : 2,
                        "POSITION" : 1
                    },
                    "indices" : 0,
                    "material" : 1
                },
                {
                    "attributes" : {
                        "NORMAL" : 5,
                        "POSITION" : 4
                    },
                    "indices" : 3,
                    "material" : 0
                }
            ]
        }
    ],
    "nodes" : [
        {
            "mesh" : 0,
            "name" : "Cylinder_6",
            "rotation" : [
                0.7071068286895752,
                0.0,
                -0.0,
                0.7071067094802856
            ],
            "translation" : [
                1.0117812156677246,
                1.5892313718795776,
                -1.644088864326477
            ]
        }
    ],
    "scene" : 0,
    "scenes" : [
        {
            "name" : "Scene",
            "nodes" : [
                0
            ]
        }
    ]
}
