{
    "accessors" : [
        {
            "bufferView" : 0,
            "componentType" : 5123,
            "count" : 204,
            "max" : [
                35
            ],
            "min" : [
                0
            ],
            "type" : "SCALAR"
        },
        {
            "bufferView" : 1,
            "componentType" : 5126,
            "count" : 36,
            "max" : [
                0.5963500142097473,
                0.656361997127533,
                12.069758415222168
            ],
            "min" : [
                -1.2906570434570312,
                -0.5747359991073608,
                10.258333206176758
            ],
            "type" : "VEC3"
        },
        {
            "bufferView" : 2,
            "componentType" : 5126,
            "count" : 36,
            "max" : [
                0.7831354737281799,
                0.9802850484848022,
                0.9128085970878601
            ],
            "min" : [
                -0.9896847605705261,
                -0.9915158748626709,
                -0.9548326134681702
            ],
            "type" : "VEC3"
        },
        {
            "bufferView" : 3,
            "componentType" : 5126,
            "count" : 36,
            "max" : [
                1.0,
                0.0,
                -0.0,
                -1.0
            ],
            "min" : [
                1.0,
                0.0,
                -0.0,
                -1.0
            ],
            "type" : "VEC4"
        },
        {
            "bufferView" : 4,
            "componentType" : 5126,
            "count" : 36,
            "max" : [
                0.2596310079097748,
                0.03551298379898071
            ],
            "min" : [
                0.22527199983596802,
                0.03551298379898071
            ],
            "type" : "VEC2"
        },
        {
            "bufferView" : 5,
            "componentType" : 5123,
            "count" : 348,
            "max" : [
                59
            ],
            "min" : [
                0
            ],
            "type" : "SCALAR"
        },
        {
            "bufferView" : 6,
            "componentType" : 5126,
            "count" : 60,
            "max" : [
                5.929800987243652,
                0.23378799855709076,
                13.45665168762207
            ],
            "min" : [
                3.424215078353882,
                -1.9792089462280273,
                10.477961540222168
            ],
            "type" : "VEC3"
        },
        {
            "bufferView" : 7,
            "componentType" : 5126,
            "count" : 60,
            "max" : [
                0.9145481586456299,
                0.9528794288635254,
                0.9766533374786377
            ],
            "min" : [
                -0.9635913968086243,
                -0.9504379630088806,
                -0.9954222440719604
            ],
            "type" : "VEC3"
        },
        {
            "bufferView" : 8,
            "componentType" : 5126,
            "count" : 60,
            "max" : [
                1.0,
                0.0,
                -0.0,
                -1.0
            ],
            "min" : [
                1.0,
                0.0,
                -0.0,
                -1.0
            ],
            "type" : "VEC4"
        },
        {
            "bufferView" : 9,
            "componentType" : 5126,
            "count" : 60,
            "max" : [
                0.2596310079097748,
                0.03551298379898071
            ],
            "min" : [
                0.22527199983596802,
                0.03551298379898071
            ],
            "type" : "VEC2"
        },
        {
            "bufferView" : 10,
            "componentType" : 5123,
            "count" : 720,
            "max" : [
                495
            ],
            "min" : [
                0
            ],
            "type" : "SCALAR"
        },
        {
            "bufferView" : 11,
            "componentType" : 5126,
            "count" : 496,
            "max" : [
                4.459784984588623,
                -0.40723198652267456,
                1.285336971282959
            ],
            "min" : [
                4.122166156768799,
                -0.5115780234336853,
                0.948481023311615
            ],
            "type" : "VEC3"
        },
        {
            "bufferView" : 12,
            "componentType" : 5126,
            "count" : 496,
            "max" : [
                0.9857783913612366,
                0.99920654296875,
                0.9985656142234802
            ],
            "min" : [
                -0.9857783913612366,
                0.05325479805469513,
                -0.9610583782196045
            ],
            "type" : "VEC3"
        },
        {
            "bufferView" : 13,
            "componentType" : 5126,
            "count" : 496,
            "max" : [
                0.9999904036521912,
                0.9985054731369019,
                0.9992275834083557,
                1.0
            ],
            "min" : [
                -0.9999905228614807,
                -0.03929780423641205,
                -0.9992275238037109,
                1.0
            ],
            "type" : "VEC4"
        },
        {
            "bufferView" : 14,
            "componentType" : 5126,
            "count" : 496,
            "max" : [
                1.0,
                1.0
            ],
            "min" : [
                0.0,
                0.0
            ],
            "type" : "VEC2"
        },
        {
            "bufferView" : 15,
            "componentType" : 5123,
            "count" : 1236,
            "max" : [
                252
            ],
            "min" : [
                0
            ],
            "type" : "SCALAR"
        },
        {
            "bufferView" : 16,
            "componentType" : 5126,
            "count" : 253,
            "max" : [
                7.326260089874268,
                0.6535410284996033,
                25.28965950012207
            ],
            "min" : [
                -2.1782848834991455,
                -1.4012030363082886,
                11.846085548400879
            ],
            "type" : "VEC3"
        },
        {
            "bufferView" : 17,
            "componentType" : 5126,
            "count" : 253,
            "max" : [
                0.9954222440719604,
                0.999481201171875,
                0.999053955078125
            ],
            "min" : [
                -0.9949339032173157,
                -0.99981689453125,
                -0.999114990234375
            ],
            "type" : "VEC3"
        },
        {
            "bufferView" : 18,
            "componentType" : 5126,
            "count" : 253,
            "max" : [
                0.8257550001144409,
                0.9748700000345707
            ],
            "min" : [
                0.08624500036239624,
                0.03551298379898071
            ],
            "type" : "VEC2"
        },
        {
            "bufferView" : 19,
            "componentType" : 5123,
            "count" : 36,
            "max" : [
                22
            ],
            "min" : [
                0
            ],
            "type" : "SCALAR"
        },
        {
            "bufferView" : 20,
            "componentType" : 5126,
            "count" : 23,
            "max" : [
                5.299806118011475,
                -0.5420169830322266,
                3.7366080284118652
            ],
            "min" : [
                3.219748020172119,
                -1.5690410137176514,
                1.8195680379867554
            ],
            "type" : "VEC3"
        },
        {
            "bufferView" : 21,
            "componentType" : 5126,
            "count" : 23,
            "max" : [
                0.7083346247673035,
                0.7188634872436523,
                0.7188634872436523
            ],
            "min" : [
                -0.5791192054748535,
                -0.65196692943573,
                -0.7077852487564087
            ],
            "type" : "VEC3"
        },
        {
            "bufferView" : 22,
            "componentType" : 5126,
            "count" : 23,
            "max" : [
                1.0,
                1.0
            ],
            "min" : [
                0.0,
                0.0
            ],
            "type" : "VEC2"
        },
        {
            "bufferView" : 23,
            "componentType" : 5123,
            "count" : 3684,
            "max" : [
                2191
            ],
            "min" : [
                0
            ],
            "type" : "SCALAR"
        },
        {
            "bufferView" : 24,
            "componentType" : 5126,
            "count" : 2192,
            "max" : [
                5.299806118011475,
                2.018641948699951,
                11.059362411499023
            ],
            "min" : [
                -2.4451050758361816,
                -3.4261720180511475,
                -11.087896347045898
            ],
            "type" : "VEC3"
        },
        {
            "bufferView" : 25,
            "componentType" : 5126,
            "count" : 2192,
            "max" : [
                0.9984740614891052,
                1.0,
                1.0
            ],
            "min" : [
                -0.9984740614891052,
                -1.0,
                -1.0
            ],
            "type" : "VEC3"
        },
        {
            "bufferView" : 26,
            "componentType" : 5126,
            "count" : 2192,
            "max" : [
                1.0,
                1.0
            ],
            "min" : [
                0.0,
                0.0
            ],
            "type" : "VEC2"
        }
    ],
    "asset" : {
        "generator" : "Khronos Blender glTF 2.0 exporter",
        "version" : "2.0"
    },
    "bufferViews" : [
        {
            "buffer" : 0,
            "byteLength" : 408,
            "byteOffset" : 0,
            "target" : 34963
        },
        {
            "buffer" : 0,
            "byteLength" : 432,
            "byteOffset" : 408,
            "target" : 34962
        },
        {
            "buffer" : 0,
            "byteLength" : 432,
            "byteOffset" : 840,
            "target" : 34962
        },
        {
            "buffer" : 0,
            "byteLength" : 576,
            "byteOffset" : 1272,
            "target" : 34962
        },
        {
            "buffer" : 0,
            "byteLength" : 288,
            "byteOffset" : 1848,
            "target" : 34962
        },
        {
            "buffer" : 0,
            "byteLength" : 696,
            "byteOffset" : 2136,
            "target" : 34963
        },
        {
            "buffer" : 0,
            "byteLength" : 720,
            "byteOffset" : 2832,
            "target" : 34962
        },
        {
            "buffer" : 0,
            "byteLength" : 720,
            "byteOffset" : 3552,
            "target" : 34962
        },
        {
            "buffer" : 0,
            "byteLength" : 960,
            "byteOffset" : 4272,
            "target" : 34962
        },
        {
            "buffer" : 0,
            "byteLength" : 480,
            "byteOffset" : 5232,
            "target" : 34962
        },
        {
            "buffer" : 0,
            "byteLength" : 1440,
            "byteOffset" : 5712,
            "target" : 34963
        },
        {
            "buffer" : 0,
            "byteLength" : 5952,
            "byteOffset" : 7152,
            "target" : 34962
        },
        {
            "buffer" : 0,
            "byteLength" : 5952,
            "byteOffset" : 13104,
            "target" : 34962
        },
        {
            "buffer" : 0,
            "byteLength" : 7936,
            "byteOffset" : 19056,
            "target" : 34962
        },
        {
            "buffer" : 0,
            "byteLength" : 3968,
            "byteOffset" : 26992,
            "target" : 34962
        },
        {
            "buffer" : 0,
            "byteLength" : 2472,
            "byteOffset" : 30960,
            "target" : 34963
        },
        {
            "buffer" : 0,
            "byteLength" : 3036,
            "byteOffset" : 33432,
            "target" : 34962
        },
        {
            "buffer" : 0,
            "byteLength" : 3036,
            "byteOffset" : 36468,
            "target" : 34962
        },
        {
            "buffer" : 0,
            "byteLength" : 2024,
            "byteOffset" : 39504,
            "target" : 34962
        },
        {
            "buffer" : 0,
            "byteLength" : 72,
            "byteOffset" : 41528,
            "target" : 34963
        },
        {
            "buffer" : 0,
            "byteLength" : 276,
            "byteOffset" : 41600,
            "target" : 34962
        },
        {
            "buffer" : 0,
            "byteLength" : 276,
            "byteOffset" : 41876,
            "target" : 34962
        },
        {
            "buffer" : 0,
            "byteLength" : 184,
            "byteOffset" : 42152,
            "target" : 34962
        },
        {
            "buffer" : 0,
            "byteLength" : 7368,
            "byteOffset" : 42336,
            "target" : 34963
        },
        {
            "buffer" : 0,
            "byteLength" : 26304,
            "byteOffset" : 49704,
            "target" : 34962
        },
        {
            "buffer" : 0,
            "byteLength" : 26304,
            "byteOffset" : 76008,
            "target" : 34962
        },
        {
            "buffer" : 0,
            "byteLength" : 17536,
            "byteOffset" : 102312,
            "target" : 34962
        }
    ],
    "buffers" : [
        {
            "byteLength" : 119848,
            "uri" : "phone.bin"
        }
    ],
    "images" : [
        {
            "name" : "intercom_wire",
            "uri" : "intercom_wire.jpg"
        }
    ],
    "materials" : [
        {
            "alphaMode" : "BLEND",
            "name" : "beige-plastic",
            "pbrMetallicRoughness" : {
                "baseColorFactor" : [
                    0.8411999940872192,
                    0.823415994644165,
                    0.7885109782218933,
                    1.0
                ],
                "metallicFactor" : 0.0
            }
        },
        {
            "alphaMode" : "BLEND",
            "name" : "beige-plastic-dark-button",
            "pbrMetallicRoughness" : {
                "baseColorFactor" : [
                    0.507066011428833,
                    0.18190999329090118,
                    0.2012919932603836,
                    1.0
                ],
                "metallicFactor" : 0.0
            }
        },
        {
            "alphaMode" : "BLEND",
            "name" : "green-light",
            "pbrMetallicRoughness" : {
                "baseColorFactor" : [
                    0.5044839978218079,
                    0.6151750087738037,
                    0.0,
                    1.0
                ],
                "metallicFactor" : 0.0
            }
        },
        {
            "alphaMode" : "BLEND",
            "name" : "wire",
            "pbrMetallicRoughness" : {
                "baseColorFactor" : [
                    0.800000011920929,
                    0.800000011920929,
                    0.800000011920929,
                    1.0
                ],
                "metallicFactor" : 0.0
            }
        },
        {
            "alphaMode" : "BLEND",
            "name" : "wire_intercom_wire.jpg",
            "pbrMetallicRoughness" : {
                "baseColorFactor" : [
                    0.800000011920929,
                    0.800000011920929,
                    0.800000011920929,
                    1.0
                ],
                "baseColorTexture" : {
                    "index" : 0
                },
                "metallicFactor" : 0.0
            }
        }
    ],
    "meshes" : [
        {
            "name" : "Cube.002",
            "primitives" : [
                {
                    "attributes" : {
                        "NORMAL" : 2,
                        "POSITION" : 1,
                        "TANGENT" : 3,
                        "TEXCOORD_0" : 4
                    },
                    "indices" : 0,
                    "material" : 3
                }
            ]
        },
        {
            "name" : "Cube.003",
            "primitives" : [
                {
                    "attributes" : {
                        "NORMAL" : 7,
                        "POSITION" : 6,
                        "TANGENT" : 8,
                        "TEXCOORD_0" : 9
                    },
                    "indices" : 5,
                    "material" : 3
                }
            ]
        },
        {
            "name" : "Sphere",
            "primitives" : [
                {
                    "attributes" : {
                        "NORMAL" : 12,
                        "POSITION" : 11,
                        "TANGENT" : 13,
                        "TEXCOORD_0" : 14
                    },
                    "indices" : 10,
                    "material" : 2
                }
            ]
        },
        {
            "name" : "Cube.004",
            "primitives" : [
                {
                    "attributes" : {
                        "NORMAL" : 17,
                        "POSITION" : 16,
                        "TEXCOORD_0" : 18
                    },
                    "indices" : 15,
                    "material" : 4
                }
            ]
        },
        {
            "name" : "Cube.001",
            "primitives" : [
                {
                    "attributes" : {
                        "NORMAL" : 21,
                        "POSITION" : 20,
                        "TEXCOORD_0" : 22
                    },
                    "indices" : 19,
                    "material" : 1
                },
                {
                    "attributes" : {
                        "NORMAL" : 25,
                        "POSITION" : 24,
                        "TEXCOORD_0" : 26
                    },
                    "indices" : 23,
                    "material" : 0
                }
            ]
        }
    ],
    "nodes" : [
        {
            "mesh" : 4,
            "name" : "Cube.001",
            "rotation" : [
                0.7071068286895752,
                0.0,
                -0.0,
                0.7071067094802856
            ],
            "scale" : [
                0.009231713600456715,
                0.009231713600456715,
                0.009231713600456715
            ],
            "translation" : [
                -0.004628896713256836,
                0.0,
                -0.24942372739315033
            ]
        },
        {
            "mesh" : 0,
            "name" : "Cube.002",
            "rotation" : [
                0.7071068286895752,
                0.0,
                -0.0,
                0.7071067094802856
            ],
            "scale" : [
                0.009231713600456715,
                0.009231713600456715,
                0.009231713600456715
            ],
            "translation" : [
                -0.004628896713256836,
                0.0,
                -0.24942372739315033
            ]
        },
        {
            "mesh" : 1,
            "name" : "Cube.003",
            "rotation" : [
                0.7071068286895752,
                0.0,
                -0.0,
                0.7071067094802856
            ],
            "scale" : [
                0.009231713600456715,
                0.009231713600456715,
                0.009231713600456715
            ],
            "translation" : [
                -0.004628896713256836,
                0.0,
                -0.24942372739315033
            ]
        },
        {
            "mesh" : 3,
            "name" : "Cube.004",
            "rotation" : [
                0.7071068286895752,
                0.0,
                -0.0,
                0.7071067094802856
            ],
            "scale" : [
                0.009231713600456715,
                0.009231713600456715,
                0.009231713600456715
            ],
            "translation" : [
                -0.004628896713256836,
                0.0,
                -0.24942372739315033
            ]
        },
        {
            "mesh" : 2,
            "name" : "Sphere",
            "rotation" : [
                0.7071068286895752,
                0.0,
                -0.0,
                0.7071067094802856
            ],
            "scale" : [
                0.009231713600456715,
                0.009231713600456715,
                0.009231713600456715
            ],
            "translation" : [
                -0.004628896713256836,
                0.0,
                -0.24942372739315033
            ]
        }
    ],
    "samplers" : [
        {}
    ],
    "scene" : 0,
    "scenes" : [
        {
            "name" : "Scene",
            "nodes" : [
                3,
                0,
                4,
                1,
                2
            ]
        }
    ],
    "textures" : [
        {
            "sampler" : 0,
            "source" : 0
        }
    ]
}
