{
    "accessors" : [
        {
            "bufferView" : 0,
            "componentType" : 5123,
            "count" : 1236,
            "max" : [
                748
            ],
            "min" : [
                0
            ],
            "type" : "SCALAR"
        },
        {
            "bufferView" : 1,
            "componentType" : 5126,
            "count" : 749,
            "max" : [
                14.89208984375,
                15.640365600585938,
                -5.14984130859375e-05
            ],
            "min" : [
                -16.437911987304688,
                -15.689651489257812,
                -24.901052474975586
            ],
            "type" : "VEC3"
        },
        {
            "bufferView" : 2,
            "componentType" : 5126,
            "count" : 749,
            "max" : [
                0.9973754286766052,
                0.9982604384422302,
                1.0
            ],
            "min" : [
                -0.9955137968063354,
                -0.9906613230705261,
                -1.0
            ],
            "type" : "VEC3"
        },
        {
            "bufferView" : 3,
            "componentType" : 5126,
            "count" : 749,
            "max" : [
                1.0,
                0.9986734390258789,
                0.9991448521614075,
                1.0
            ],
            "min" : [
                -0.9996877908706665,
                -0.7071837186813354,
                -0.6993929147720337,
                -1.0
            ],
            "type" : "VEC4"
        },
        {
            "bufferView" : 4,
            "componentType" : 5126,
            "count" : 749,
            "max" : [
                0.9715200066566467,
                0.9898699996992946
            ],
            "min" : [
                0.030300000682473183,
                0.0
            ],
            "type" : "VEC2"
        },
        {
            "bufferView" : 5,
            "componentType" : 5123,
            "count" : 3264,
            "max" : [
                2271
            ],
            "min" : [
                0
            ],
            "type" : "SCALAR"
        },
        {
            "bufferView" : 6,
            "componentType" : 5126,
            "count" : 2272,
            "max" : [
                49.61309051513672,
                55.74433898925781,
                -10.219051361083984
            ],
            "min" : [
                -47.0718994140625,
                -40.441650390625,
                -85.35205078125
            ],
            "type" : "VEC3"
        },
        {
            "bufferView" : 7,
            "componentType" : 5126,
            "count" : 2272,
            "max" : [
                0.9981383681297302,
                0.9917294979095459,
                0.99993896484375
            ],
            "min" : [
                -0.9985961318016052,
                -0.9869685769081116,
                -0.999969482421875
            ],
            "type" : "VEC3"
        },
        {
            "bufferView" : 8,
            "componentType" : 5126,
            "count" : 2272,
            "max" : [
                0.9998917579650879,
                0.9671366810798645,
                0.9994606971740723,
                1.0
            ],
            "min" : [
                -0.9562327861785889,
                -0.921321451663971,
                -0.999924898147583,
                -1.0
            ],
            "type" : "VEC4"
        },
        {
            "bufferView" : 9,
            "componentType" : 5126,
            "count" : 2272,
            "max" : [
                5.3642802238464355,
                7.715370178222656
            ],
            "min" : [
                -5.287650108337402,
                -0.47071003913879395
            ],
            "type" : "VEC2"
        },
        {
            "bufferView" : 10,
            "componentType" : 5123,
            "count" : 45,
            "max" : [
                28
            ],
            "min" : [
                0
            ],
            "type" : "SCALAR"
        },
        {
            "bufferView" : 11,
            "componentType" : 5126,
            "count" : 29,
            "max" : [
                10.72808837890625,
                11.090362548828125,
                -20.592052459716797
            ],
            "min" : [
                -12.030899047851562,
                -11.550643920898438,
                -20.592052459716797
            ],
            "type" : "VEC3"
        },
        {
            "bufferView" : 12,
            "componentType" : 5126,
            "count" : 29,
            "max" : [
                0.0,
                0.0,
                1.0
            ],
            "min" : [
                0.0,
                0.0,
                -1.0
            ],
            "type" : "VEC3"
        },
        {
            "bufferView" : 13,
            "componentType" : 5126,
            "count" : 29,
            "max" : [
                1.0,
                0.6225140690803528,
                3.477276422358955e-08,
                1.0
            ],
            "min" : [
                0.0,
                -6.595810555154458e-05,
                -1.5098755739018088e-06,
                -1.0
            ],
            "type" : "VEC4"
        },
        {
            "bufferView" : 14,
            "componentType" : 5126,
            "count" : 29,
            "max" : [
                1.0,
                0.8724299967288971
            ],
            "min" : [
                0.0,
                0.02394998073577881
            ],
            "type" : "VEC2"
        }
    ],
    "asset" : {
        "generator" : "Khronos Blender glTF 2.0 exporter",
        "version" : "2.0"
    },
    "bufferViews" : [
        {
            "buffer" : 0,
            "byteLength" : 2472,
            "byteOffset" : 0,
            "target" : 34963
        },
        {
            "buffer" : 0,
            "byteLength" : 8988,
            "byteOffset" : 2472,
            "target" : 34962
        },
        {
            "buffer" : 0,
            "byteLength" : 8988,
            "byteOffset" : 11460,
            "target" : 34962
        },
        {
            "buffer" : 0,
            "byteLength" : 11984,
            "byteOffset" : 20448,
            "target" : 34962
        },
        {
            "buffer" : 0,
            "byteLength" : 5992,
            "byteOffset" : 32432,
            "target" : 34962
        },
        {
            "buffer" : 0,
            "byteLength" : 6528,
            "byteOffset" : 38424,
            "target" : 34963
        },
        {
            "buffer" : 0,
            "byteLength" : 27264,
            "byteOffset" : 44952,
            "target" : 34962
        },
        {
            "buffer" : 0,
            "byteLength" : 27264,
            "byteOffset" : 72216,
            "target" : 34962
        },
        {
            "buffer" : 0,
            "byteLength" : 36352,
            "byteOffset" : 99480,
            "target" : 34962
        },
        {
            "buffer" : 0,
            "byteLength" : 18176,
            "byteOffset" : 135832,
            "target" : 34962
        },
        {
            "buffer" : 0,
            "byteLength" : 90,
            "byteOffset" : 154008,
            "target" : 34963
        },
        {
            "buffer" : 0,
            "byteLength" : 348,
            "byteOffset" : 154100,
            "target" : 34962
        },
        {
            "buffer" : 0,
            "byteLength" : 348,
            "byteOffset" : 154448,
            "target" : 34962
        },
        {
            "buffer" : 0,
            "byteLength" : 464,
            "byteOffset" : 154796,
            "target" : 34962
        },
        {
            "buffer" : 0,
            "byteLength" : 232,
            "byteOffset" : 155260,
            "target" : 34962
        }
    ],
    "buffers" : [
        {
            "byteLength" : 155492,
            "uri" : "plant.bin"
        }
    ],
    "images" : [
        {
            "name" : "0010",
            "uri" : "0010.png"
        }
    ],
    "materials" : [
        {
            "name" : "Potplant2_1",
            "pbrMetallicRoughness" : {
                "baseColorFactor" : [
                    0.18000000715255737,
                    0.36000001430511475,
                    0.12999999523162842,
                    1.0
                ],
                "metallicFactor" : 0.0
            }
        },
        {
            "name" : "Potplant2_2",
            "pbrMetallicRoughness" : {
                "baseColorTexture" : {
                    "index" : 0
                },
                "metallicFactor" : 0.0
            }
        },
        {
            "name" : "Potplant2_3",
            "pbrMetallicRoughness" : {
                "baseColorFactor" : [
                    0.23999999463558197,
                    0.15000000596046448,
                    0.019999999552965164,
                    1.0
                ],
                "metallicFactor" : 0.0
            }
        }
    ],
    "meshes" : [
        {
            "name" : "Potplant2_2",
            "primitives" : [
                {
                    "attributes" : {
                        "NORMAL" : 2,
                        "POSITION" : 1,
                        "TANGENT" : 3,
                        "TEXCOORD_0" : 4
                    },
                    "indices" : 0,
                    "material" : 1
                }
            ]
        },
        {
            "name" : "Potplant2_1",
            "primitives" : [
                {
                    "attributes" : {
                        "NORMAL" : 7,
                        "POSITION" : 6,
                        "TANGENT" : 8,
                        "TEXCOORD_0" : 9
                    },
                    "indices" : 5,
                    "material" : 0
                }
            ]
        },
        {
            "name" : "Potplant2_3",
            "primitives" : [
                {
                    "attributes" : {
                        "NORMAL" : 12,
                        "POSITION" : 11,
                        "TANGENT" : 13,
                        "TEXCOORD_0" : 14
                    },
                    "indices" : 10,
                    "material" : 2
                }
            ]
        }
    ],
    "nodes" : [
        {
            "mesh" : 1,
            "name" : "Potplant2_1",
            "rotation" : [
                0.7071068286895752,
                0.0,
                -0.0,
                0.7071067094802856
            ],
            "scale" : [
                0.0025788338389247656,
                0.0025788338389247656,
                0.0025788338389247656
            ],
            "translation" : [
                -0.0023997537791728973,
                -0.02580493688583374,
                0.027752291411161423
            ]
        },
        {
            "mesh" : 0,
            "name" : "Potplant2_2",
            "rotation" : [
                0.7071068286895752,
                0.0,
                -0.0,
                0.7071067094802856
            ],
            "scale" : [
                0.0025788338389247656,
                0.0025788338389247656,
                0.0025788338389247656
            ],
            "translation" : [
                -0.0023997537791728973,
                -0.02580493688583374,
                0.027752291411161423
            ]
        },
        {
            "mesh" : 2,
            "name" : "Potplant2_3",
            "rotation" : [
                0.7071068286895752,
                0.0,
                -0.0,
                0.7071067094802856
            ],
            "scale" : [
                0.0025788338389247656,
                0.0025788338389247656,
                0.0025788338389247656
            ],
            "translation" : [
                -0.0023997537791728973,
                -0.02580493688583374,
                0.027752291411161423
            ]
        }
    ],
    "samplers" : [
        {}
    ],
    "scene" : 0,
    "scenes" : [
        {
            "name" : "Scene",
            "nodes" : [
                2,
                0,
                1
            ]
        }
    ],
    "textures" : [
        {
            "sampler" : 0,
            "source" : 0
        }
    ]
}
