{
    "accessors" : [
        {
            "bufferView" : 0,
            "componentType" : 5123,
            "count" : 360,
            "max" : [
                279
            ],
            "min" : [
                0
            ],
            "type" : "SCALAR"
        },
        {
            "bufferView" : 1,
            "componentType" : 5126,
            "count" : 280,
            "max" : [
                0.44698429107666016,
                0.2178242951631546,
                0.008169999346137047
            ],
            "min" : [
                -0.44698429107666016,
                -0.2178242951631546,
                -0.35183170437812805
            ],
            "type" : "VEC3"
        },
        {
            "bufferView" : 2,
            "componentType" : 5126,
            "count" : 280,
            "max" : [
                0.8920255303382874,
                0.8920255303382874,
                1.0
            ],
            "min" : [
                -0.8920255303382874,
                -0.8920255303382874,
                -1.0
            ],
            "type" : "VEC3"
        },
        {
            "bufferView" : 3,
            "componentType" : 5123,
            "count" : 144,
            "max" : [
                59
            ],
            "min" : [
                0
            ],
            "type" : "SCALAR"
        },
        {
            "bufferView" : 4,
            "componentType" : 5126,
            "count" : 60,
            "max" : [
                0.4749999940395355,
                0.25,
                -0.08999999612569809
            ],
            "min" : [
                -0.4749999940395355,
                -0.25,
                -0.3700000047683716
            ],
            "type" : "VEC3"
        },
        {
            "bufferView" : 5,
            "componentType" : 5126,
            "count" : 60,
            "max" : [
                1.0,
                1.0,
                1.0
            ],
            "min" : [
                -1.0,
                -1.0,
                -1.0
            ],
            "type" : "VEC3"
        }
    ],
    "asset" : {
        "generator" : "Khronos Blender glTF 2.0 exporter",
        "version" : "2.0"
    },
    "bufferViews" : [
        {
            "buffer" : 0,
            "byteLength" : 720,
            "byteOffset" : 0,
            "target" : 34963
        },
        {
            "buffer" : 0,
            "byteLength" : 3360,
            "byteOffset" : 720,
            "target" : 34962
        },
        {
            "buffer" : 0,
            "byteLength" : 3360,
            "byteOffset" : 4080,
            "target" : 34962
        },
        {
            "buffer" : 0,
            "byteLength" : 288,
            "byteOffset" : 7440,
            "target" : 34963
        },
        {
            "buffer" : 0,
            "byteLength" : 720,
            "byteOffset" : 7728,
            "target" : 34962
        },
        {
            "buffer" : 0,
            "byteLength" : 720,
            "byteOffset" : 8448,
            "target" : 34962
        }
    ],
    "buffers" : [
        {
            "byteLength" : 9168,
            "uri" : "table.bin"
        }
    ],
    "materials" : [
        {
            "name" : "black",
            "pbrMetallicRoughness" : {
                "baseColorFactor" : [
                    0.6400000190734865,
                    0.6400000190734865,
                    0.6400000190734865,
                    1.0
                ],
                "metallicFactor" : 0.0
            }
        },
        {
            "name" : "lighttannew",
            "pbrMetallicRoughness" : {
                "baseColorFactor" : [
                    0.6400000190734865,
                    0.6400000190734865,
                    0.6400000190734865,
                    1.0
                ],
                "metallicFactor" : 0.0
            }
        }
    ],
    "meshes" : [
        {
            "name" : "Etag\u00e8re_du_bas",
            "primitives" : [
                {
                    "attributes" : {
                        "NORMAL" : 2,
                        "POSITION" : 1
                    },
                    "indices" : 0,
                    "material" : 0
                },
                {
                    "attributes" : {
                        "NORMAL" : 5,
                        "POSITION" : 4
                    },
                    "indices" : 3,
                    "material" : 1
                }
            ]
        }
    ],
    "nodes" : [
        {
            "mesh" : 0,
            "name" : "Etag\u00e8re_du_bas",
            "rotation" : [
                0.7071068286895752,
                0.0,
                -0.0,
                0.7071067094802856
            ],
            "scale" : [
                1.5,
                1.5,
                1.5
            ]
        }
    ],
    "scene" : 0,
    "scenes" : [
        {
            "name" : "Scene",
            "nodes" : [
                0
            ]
        }
    ]
}
