{
    "accessors" : [
        {
            "bufferView" : 0,
            "componentType" : 5123,
            "count" : 72,
            "max" : [
                71
            ],
            "min" : [
                0
            ],
            "type" : "SCALAR"
        },
        {
            "bufferView" : 1,
            "componentType" : 5126,
            "count" : 72,
            "max" : [
                0.8843555450439453,
                0.2796329855918884,
                -0.11942512542009354
            ],
            "min" : [
                0.2731055021286011,
                0.27525800466537476,
                -1.1231751441955566
            ],
            "type" : "VEC3"
        },
        {
            "bufferView" : 2,
            "componentType" : 5126,
            "count" : 72,
            "max" : [
                1.0,
                1.0,
                1.0
            ],
            "min" : [
                -1.0,
                -1.0,
                -1.0
            ],
            "type" : "VEC3"
        },
        {
            "bufferView" : 3,
            "componentType" : 5126,
            "count" : 72,
            "max" : [
                1.0,
                1.0,
                1.0,
                1.0
            ],
            "min" : [
                -1.0,
                -1.0,
                -1.0,
                1.0
            ],
            "type" : "VEC4"
        },
        {
            "bufferView" : 4,
            "componentType" : 5126,
            "count" : 72,
            "max" : [
                1.0,
                1.0
            ],
            "min" : [
                0.0,
                0.0
            ],
            "type" : "VEC2"
        },
        {
            "bufferView" : 5,
            "componentType" : 5123,
            "count" : 4533,
            "max" : [
                1501
            ],
            "min" : [
                0
            ],
            "type" : "SCALAR"
        },
        {
            "bufferView" : 6,
            "componentType" : 5126,
            "count" : 1502,
            "max" : [
                0.9145712852478027,
                0.2951112389564514,
                0.9220259785652161
            ],
            "min" : [
                -1.0341180562973022,
                -0.2043749988079071,
                -1.365565538406372
            ],
            "type" : "VEC3"
        },
        {
            "bufferView" : 7,
            "componentType" : 5126,
            "count" : 1502,
            "max" : [
                1.0,
                1.0,
                1.0
            ],
            "min" : [
                -1.0,
                -1.0,
                -1.0
            ],
            "type" : "VEC3"
        },
        {
            "bufferView" : 8,
            "componentType" : 5126,
            "count" : 1502,
            "max" : [
                1.0,
                1.0,
                5.792676893179305e-05,
                1.0
            ],
            "min" : [
                -1.0,
                -1.1606689298560013e-07,
                -9.767877600097563e-07,
                -1.0
            ],
            "type" : "VEC4"
        },
        {
            "bufferView" : 9,
            "componentType" : 5126,
            "count" : 1502,
            "max" : [
                1.0028899908065796,
                1.0
            ],
            "min" : [
                -0.009089999832212925,
                -1.3843998908996582
            ],
            "type" : "VEC2"
        },
        {
            "bufferView" : 10,
            "componentType" : 5123,
            "count" : 4416,
            "max" : [
                1175
            ],
            "min" : [
                0
            ],
            "type" : "SCALAR"
        },
        {
            "bufferView" : 11,
            "componentType" : 5126,
            "count" : 1176,
            "max" : [
                0.40983062982559204,
                0.3129807412624359,
                0.6989181041717529
            ],
            "min" : [
                -0.725308895111084,
                0.2187916338443756,
                -0.8534464836120605
            ],
            "type" : "VEC3"
        },
        {
            "bufferView" : 12,
            "componentType" : 5126,
            "count" : 1176,
            "max" : [
                1.0,
                0.9967344999313354,
                1.0
            ],
            "min" : [
                -1.0,
                -1.0,
                -0.99993896484375
            ],
            "type" : "VEC3"
        },
        {
            "bufferView" : 13,
            "componentType" : 5126,
            "count" : 1176,
            "max" : [
                1.0,
                0.9907930493354797,
                0.7878239750862122,
                1.0
            ],
            "min" : [
                0.13473744690418243,
                -0.8932860493659973,
                -0.5786428451538086,
                -1.0
            ],
            "type" : "VEC4"
        },
        {
            "bufferView" : 14,
            "componentType" : 5126,
            "count" : 1176,
            "max" : [
                1.0,
                1.0
            ],
            "min" : [
                0.0,
                0.0
            ],
            "type" : "VEC2"
        }
    ],
    "asset" : {
        "generator" : "Khronos Blender glTF 2.0 exporter",
        "version" : "2.0"
    },
    "bufferViews" : [
        {
            "buffer" : 0,
            "byteLength" : 144,
            "byteOffset" : 0,
            "target" : 34963
        },
        {
            "buffer" : 0,
            "byteLength" : 864,
            "byteOffset" : 144,
            "target" : 34962
        },
        {
            "buffer" : 0,
            "byteLength" : 864,
            "byteOffset" : 1008,
            "target" : 34962
        },
        {
            "buffer" : 0,
            "byteLength" : 1152,
            "byteOffset" : 1872,
            "target" : 34962
        },
        {
            "buffer" : 0,
            "byteLength" : 576,
            "byteOffset" : 3024,
            "target" : 34962
        },
        {
            "buffer" : 0,
            "byteLength" : 9066,
            "byteOffset" : 3600,
            "target" : 34963
        },
        {
            "buffer" : 0,
            "byteLength" : 18024,
            "byteOffset" : 12668,
            "target" : 34962
        },
        {
            "buffer" : 0,
            "byteLength" : 18024,
            "byteOffset" : 30692,
            "target" : 34962
        },
        {
            "buffer" : 0,
            "byteLength" : 24032,
            "byteOffset" : 48716,
            "target" : 34962
        },
        {
            "buffer" : 0,
            "byteLength" : 12016,
            "byteOffset" : 72748,
            "target" : 34962
        },
        {
            "buffer" : 0,
            "byteLength" : 8832,
            "byteOffset" : 84764,
            "target" : 34963
        },
        {
            "buffer" : 0,
            "byteLength" : 14112,
            "byteOffset" : 93596,
            "target" : 34962
        },
        {
            "buffer" : 0,
            "byteLength" : 14112,
            "byteOffset" : 107708,
            "target" : 34962
        },
        {
            "buffer" : 0,
            "byteLength" : 18816,
            "byteOffset" : 121820,
            "target" : 34962
        },
        {
            "buffer" : 0,
            "byteLength" : 9408,
            "byteOffset" : 140636,
            "target" : 34962
        }
    ],
    "buffers" : [
        {
            "byteLength" : 150044,
            "uri" : "tvStand.bin"
        }
    ],
    "images" : [
        {
            "name" : "meubleHiFiHaut_BoisBlanc",
            "uri" : "meubleHiFiHaut_BoisBlanc.jpg"
        },
        {
            "name" : "meubleHiFiHaut_GrisMat",
            "uri" : "meubleHiFiHaut_GrisMat.png"
        }
    ],
    "materials" : [
        {
            "name" : "BoisBlanc",
            "pbrMetallicRoughness" : {
                "baseColorTexture" : {
                    "index" : 0
                },
                "metallicFactor" : 0.0
            }
        },
        {
            "name" : "GrisMat",
            "pbrMetallicRoughness" : {
                "baseColorTexture" : {
                    "index" : 1
                },
                "metallicFactor" : 0.0
            }
        },
        {
            "name" : "VerreBlanc",
            "pbrMetallicRoughness" : {
                "baseColorFactor" : [
                    0.6693000197410583,
                    0.6693000197410583,
                    0.6693000197410583,
                    1.0
                ],
                "metallicFactor" : 0.0
            }
        }
    ],
    "meshes" : [
        {
            "name" : "Cube_10_15",
            "primitives" : [
                {
                    "attributes" : {
                        "NORMAL" : 2,
                        "POSITION" : 1,
                        "TANGENT" : 3,
                        "TEXCOORD_0" : 4
                    },
                    "indices" : 0,
                    "material" : 2
                },
                {
                    "attributes" : {
                        "NORMAL" : 7,
                        "POSITION" : 6,
                        "TANGENT" : 8,
                        "TEXCOORD_0" : 9
                    },
                    "indices" : 5,
                    "material" : 0
                },
                {
                    "attributes" : {
                        "NORMAL" : 12,
                        "POSITION" : 11,
                        "TANGENT" : 13,
                        "TEXCOORD_0" : 14
                    },
                    "indices" : 10,
                    "material" : 1
                }
            ]
        }
    ],
    "nodes" : [
        {
            "mesh" : 0,
            "name" : "tvStand",
            "rotation" : [
                0.7071068286895752,
                0.0,
                -0.0,
                0.7071067094802856
            ],
            "translation" : [
                1.3904097080230713,
                0.9444801807403564,
                -0.3710024952888489
            ]
        }
    ],
    "samplers" : [
        {}
    ],
    "scene" : 0,
    "scenes" : [
        {
            "name" : "Scene",
            "nodes" : [
                0
            ]
        }
    ],
    "textures" : [
        {
            "sampler" : 0,
            "source" : 0
        },
        {
            "sampler" : 0,
            "source" : 1
        }
    ]
}
