{
    "accessors" : [
        {
            "bufferView" : 0,
            "componentType" : 5123,
            "count" : 564,
            "max" : [
                345
            ],
            "min" : [
                0
            ],
            "type" : "SCALAR"
        },
        {
            "bufferView" : 1,
            "componentType" : 5126,
            "count" : 346,
            "max" : [
                9.680951118469238,
                34.447872161865234,
                9.372396469116211
            ],
            "min" : [
                -9.162632942199707,
                -33.847896575927734,
                -9.128578186035156
            ],
            "type" : "VEC3"
        },
        {
            "bufferView" : 2,
            "componentType" : 5126,
            "count" : 346,
            "max" : [
                0.9847712516784668,
                0.9969176054000854,
                0.982421338558197
            ],
            "min" : [
                -0.9902035593986511,
                -0.999664306640625,
                -0.9848017692565918
            ],
            "type" : "VEC3"
        },
        {
            "bufferView" : 3,
            "componentType" : 5126,
            "count" : 346,
            "max" : [
                0.6255210041999817,
                0.7993600070476532
            ],
            "min" : [
                0.03157300129532814,
                0.36928099393844604
            ],
            "type" : "VEC2"
        },
        {
            "bufferView" : 4,
            "componentType" : 5123,
            "count" : 564,
            "max" : [
                345
            ],
            "min" : [
                0
            ],
            "type" : "SCALAR"
        },
        {
            "bufferView" : 5,
            "componentType" : 5126,
            "count" : 346,
            "max" : [
                19.991374969482422,
                32.23330307006836,
                -4.106960773468018
            ],
            "min" : [
                3.383826971054077,
                -31.01826286315918,
                -22.4408016204834
            ],
            "type" : "VEC3"
        },
        {
            "bufferView" : 6,
            "componentType" : 5126,
            "count" : 346,
            "max" : [
                0.9907833933830261,
                0.999969482421875,
                0.9918820858001709
            ],
            "min" : [
                -0.9916379451751709,
                -0.999481201171875,
                -0.9902951121330261
            ],
            "type" : "VEC3"
        },
        {
            "bufferView" : 7,
            "componentType" : 5126,
            "count" : 346,
            "max" : [
                0.970399022102356,
                0.9655180014669895
            ],
            "min" : [
                0.027396999299526215,
                0.06397801637649536
            ],
            "type" : "VEC2"
        },
        {
            "bufferView" : 8,
            "componentType" : 5123,
            "count" : 564,
            "max" : [
                347
            ],
            "min" : [
                0
            ],
            "type" : "SCALAR"
        },
        {
            "bufferView" : 9,
            "componentType" : 5126,
            "count" : 348,
            "max" : [
                31.09229850769043,
                35.67349624633789,
                9.373865127563477
            ],
            "min" : [
                13.0448579788208,
                -34.21769332885742,
                -8.770120620727539
            ],
            "type" : "VEC3"
        },
        {
            "bufferView" : 10,
            "componentType" : 5126,
            "count" : 348,
            "max" : [
                0.9974059462547302,
                0.9941709637641907,
                0.9891353845596313
            ],
            "min" : [
                -0.9896847605705261,
                -0.9933469891548157,
                -0.9869990944862366
            ],
            "type" : "VEC3"
        },
        {
            "bufferView" : 11,
            "componentType" : 5126,
            "count" : 348,
            "max" : [
                0.9415479898452759,
                0.9454450011253357
            ],
            "min" : [
                0.030977999791502953,
                0.464277982711792
            ],
            "type" : "VEC2"
        }
    ],
    "asset" : {
        "generator" : "Khronos Blender glTF 2.0 exporter",
        "version" : "2.0"
    },
    "bufferViews" : [
        {
            "buffer" : 0,
            "byteLength" : 1128,
            "byteOffset" : 0,
            "target" : 34963
        },
        {
            "buffer" : 0,
            "byteLength" : 4152,
            "byteOffset" : 1128,
            "target" : 34962
        },
        {
            "buffer" : 0,
            "byteLength" : 4152,
            "byteOffset" : 5280,
            "target" : 34962
        },
        {
            "buffer" : 0,
            "byteLength" : 2768,
            "byteOffset" : 9432,
            "target" : 34962
        },
        {
            "buffer" : 0,
            "byteLength" : 1128,
            "byteOffset" : 12200,
            "target" : 34963
        },
        {
            "buffer" : 0,
            "byteLength" : 4152,
            "byteOffset" : 13328,
            "target" : 34962
        },
        {
            "buffer" : 0,
            "byteLength" : 4152,
            "byteOffset" : 17480,
            "target" : 34962
        },
        {
            "buffer" : 0,
            "byteLength" : 2768,
            "byteOffset" : 21632,
            "target" : 34962
        },
        {
            "buffer" : 0,
            "byteLength" : 1128,
            "byteOffset" : 24400,
            "target" : 34963
        },
        {
            "buffer" : 0,
            "byteLength" : 4176,
            "byteOffset" : 25528,
            "target" : 34962
        },
        {
            "buffer" : 0,
            "byteLength" : 4176,
            "byteOffset" : 29704,
            "target" : 34962
        },
        {
            "buffer" : 0,
            "byteLength" : 2784,
            "byteOffset" : 33880,
            "target" : 34962
        }
    ],
    "buffers" : [
        {
            "byteLength" : 36664,
            "uri" : "woodLogs.bin"
        }
    ],
    "images" : [
        {
            "name" : "wood_logs_texture",
            "uri" : "wood_logs_texture.jpg"
        }
    ],
    "materials" : [
        {
            "alphaMode" : "BLEND",
            "name" : "wood",
            "pbrMetallicRoughness" : {
                "baseColorFactor" : [
                    0.800000011920929,
                    0.800000011920929,
                    0.800000011920929,
                    1.0
                ],
                "baseColorTexture" : {
                    "index" : 0
                },
                "metallicFactor" : 0.0
            }
        }
    ],
    "meshes" : [
        {
            "name" : "Cylinder",
            "primitives" : [
                {
                    "attributes" : {
                        "NORMAL" : 2,
                        "POSITION" : 1,
                        "TEXCOORD_0" : 3
                    },
                    "indices" : 0,
                    "material" : 0
                }
            ]
        },
        {
            "name" : "Cylinder.002",
            "primitives" : [
                {
                    "attributes" : {
                        "NORMAL" : 6,
                        "POSITION" : 5,
                        "TEXCOORD_0" : 7
                    },
                    "indices" : 4,
                    "material" : 0
                }
            ]
        },
        {
            "name" : "Cylinder.001",
            "primitives" : [
                {
                    "attributes" : {
                        "NORMAL" : 10,
                        "POSITION" : 9,
                        "TEXCOORD_0" : 11
                    },
                    "indices" : 8,
                    "material" : 0
                }
            ]
        }
    ],
    "nodes" : [
        {
            "mesh" : 0,
            "name" : "Cylinder",
            "rotation" : [
                0.7071068286895752,
                0.0,
                -0.0,
                0.7071067094802856
            ],
            "scale" : [
                0.00827143993228674,
                0.00827143993228674,
                0.00827143993228674
            ]
        },
        {
            "mesh" : 2,
            "name" : "Cylinder.001",
            "rotation" : [
                0.7071068286895752,
                0.0,
                -0.0,
                0.7071067094802856
            ],
            "scale" : [
                0.00827143993228674,
                0.00827143993228674,
                0.00827143993228674
            ]
        },
        {
            "mesh" : 1,
            "name" : "Cylinder.002",
            "rotation" : [
                0.7071068286895752,
                0.0,
                -0.0,
                0.7071067094802856
            ],
            "scale" : [
                0.00827143993228674,
                0.00827143993228674,
                0.00827143993228674
            ]
        }
    ],
    "samplers" : [
        {}
    ],
    "scene" : 0,
    "scenes" : [
        {
            "name" : "Scene",
            "nodes" : [
                1,
                2,
                0
            ]
        }
    ],
    "textures" : [
        {
            "sampler" : 0,
            "source" : 0
        }
    ]
}
